<svg xmlns="http://www.w3.org/2000/svg" viewBox="0 0 158.18 160.72"><defs><style>.cls-1{fill:#3265b1;}.cls-2{fill:#e0ecff;}.cls-3{fill:#a6c3ee;}.cls-4{fill:#00dc7b;}.cls-5,.cls-7{fill:#fff;}.cls-6{fill:none;stroke:#fff;}.cls-6,.cls-7{stroke-miterlimit:10;stroke-width:3.25px;}.cls-7{stroke:#3265b1;}</style></defs><g id="Layer_2" data-name="Layer 2"><g id="Layer_3" data-name="Layer 3"><path class="cls-1" d="M136.81,100.34h0l-57.72,43,0,0-57.69-43h0a17.65,17.65,0,0,1,6.92-14l9.05-6.94h83.49l9.06,6.94A17.68,17.68,0,0,1,136.81,100.34Z"/><path class="cls-1" d="M136.81,99.92v.42l-57.72,43v-64h41.74l9.39,7.19A16.86,16.86,0,0,1,136.81,99.92Z"/><path class="cls-2" d="M122.15,45.28v67.37L79.11,141h0L36,112.64V45.28Z"/><path class="cls-3" d="M136.81,107.09v53.63H21.37V100.34l57.69,36.29,0,0Z"/><path class="cls-3" d="M136.81,100.34v60.38H79.06V136.63l0,0Z"/><circle class="cls-4" cx="79.09" cy="89.28" r="28.54"/><path class="cls-5" d="M91.87,84.26,76.15,100,66.3,90.14l4.79-4.78,5.06,5.06,2.94-2.94,8-8Z"/><polyline class="cls-6" points="16.46 95.99 79.5 136.11 137.96 98.29"/><line class="cls-7" x1="21.78" y1="78.8" y2="78.8"/><line class="cls-7" x1="158.18" y1="79.37" x2="136.4" y2="79.37"/><line class="cls-7" x1="135.21" y1="23.37" x2="119.81" y2="38.77"/><line class="cls-7" x1="79.37" x2="79.37" y2="21.78"/><line class="cls-7" x1="23.37" y1="22.96" x2="38.77" y2="38.36"/></g></g></svg>