<svg xmlns="http://www.w3.org/2000/svg" viewBox="0 0 133.45 168.56"><defs><style>.cls-1{fill:#a6c3ee;}.cls-2,.cls-3{fill:none;}.cls-2,.cls-4{stroke:#fff;}.cls-2,.cls-3,.cls-4,.cls-5{stroke-miterlimit:10;}.cls-2{stroke-width:2.88px;}.cls-3{stroke:#3265b1;stroke-width:5.03px;}.cls-4{fill:#034588;stroke-width:2.52px;}.cls-5{fill:#fff;stroke:#034588;stroke-width:0.89px;}</style></defs><g id="Layer_2" data-name="Layer 2"><g id="Layer_3" data-name="Layer 3"><path class="cls-1" d="M131.3,168.56H34.51V20.27h66.83l30,30Z"/><polyline class="cls-2" points="100.66 18.5 100.66 51.35 133.45 51.35"/><line class="cls-3" x1="53.38" y1="97.52" x2="71.58" y2="115.73"/><line class="cls-3" x1="53.38" y1="115.73" x2="71.58" y2="97.52"/><line class="cls-3" x1="94.23" y1="97.52" x2="112.43" y2="115.73"/><line class="cls-3" x1="94.23" y1="115.73" x2="112.43" y2="97.52"/><path class="cls-3" d="M54.61,145.47c6.58-5.2,16.8-8.54,28.29-8.54s21.72,3.34,28.3,8.54"/><path class="cls-4" d="M36.8,3.87,2,64.21A5.21,5.21,0,0,0,6.48,72H76.16a5.21,5.21,0,0,0,4.52-7.82L45.84,3.87A5.22,5.22,0,0,0,36.8,3.87Z"/><rect class="cls-5" x="36.44" y="19.83" width="9.77" height="25.75"/><circle class="cls-5" cx="41.32" cy="57.57" r="5.77"/></g></g></svg>