<svg width="28" height="28" viewBox="0 0 28 28" fill="none" xmlns="http://www.w3.org/2000/svg">
<circle cx="14" cy="14" r="14" fill="#039BE5"/>
<path d="M6.5453 14.2618L9.76397 15.4619L11.0187 19.4989C11.0732 19.7717 11.4006 19.8262 11.6188 19.6626L13.419 18.1896C13.5827 18.026 13.8555 18.026 14.0737 18.1896L17.2923 20.5354C17.5106 20.6991 17.8379 20.59 17.8924 20.3172L20.2928 8.86096C20.3473 8.58819 20.0746 8.31543 19.8018 8.42454L6.5453 13.5526C6.21797 13.6617 6.21797 14.1527 6.5453 14.2618ZM10.855 14.8618L17.1832 10.9885C17.2923 10.934 17.4015 11.0977 17.2923 11.1522L12.1098 16.0075C11.9461 16.1711 11.7824 16.3893 11.7824 16.6621L11.6188 17.9714C11.6188 18.1351 11.346 18.1896 11.2915 17.9714L10.6368 15.571C10.4731 15.2983 10.5823 14.971 10.855 14.8618Z" fill="white"/>
</svg>
