<svg width="32" height="16" viewBox="0 0 32 16" fill="none" xmlns="http://www.w3.org/2000/svg">
<path d="M14.7096 8.74416C14.6415 8.67861 14.5735 8.61055 14.508 8.54248C14.2183 8.62207 13.9598 8.78831 13.7672 9.01895C13.4942 9.40611 13.4745 9.91775 13.7168 10.3248C13.8467 10.5319 14.0366 10.6946 14.2611 10.7912C14.545 10.911 14.85 10.9727 15.1581 10.9727V9.18534L14.9615 8.99122L14.7096 8.74416Z" fill="#3367B1"/>
<path d="M14.8154 6.36454C14.8218 6.53955 14.8778 6.70915 14.9767 6.85362C15.0322 6.94111 15.0928 7.02529 15.1581 7.10572V5.84521C15.1094 5.86778 15.0644 5.89753 15.0246 5.93345C14.8938 6.03851 14.817 6.19674 14.8154 6.36454Z" fill="#3367B1"/>
<path d="M0 15.9619H15.1559V12.3821C14.5626 12.397 13.9735 12.2781 13.4324 12.0342C12.9937 11.8317 12.6183 11.5137 12.3464 11.1141C12.1046 10.753 11.9748 10.3285 11.9735 9.89389C11.9715 9.39141 12.1294 8.90133 12.4245 8.49473C12.7398 8.0815 13.1528 7.75317 13.6264 7.53928C13.5321 7.39751 13.4479 7.24924 13.3745 7.09558C13.2714 6.88877 13.2171 6.6611 13.2157 6.43004C13.2211 6.08341 13.3299 5.7463 13.5282 5.46197C13.7525 5.1384 14.0561 4.87796 14.4101 4.70567C14.6477 4.58347 14.9026 4.49845 15.166 4.45357V0.835938H0V15.9619ZM5.24093 4.50147L7.18109 9.08717C7.28692 9.33927 7.40282 9.62414 7.53132 9.91406C7.56912 9.99473 7.60188 10.0754 7.63967 10.1662C7.66991 10.088 7.96219 9.37204 8.0655 9.11238L9.86455 4.51155H11.7871L10.5272 7.45356L8.39054 12.3922H6.80314L3.37637 4.50147H5.24093Z" fill="#3367B1"/>
<path d="M16.8314 4.56702C17.0518 4.6406 17.2618 4.74227 17.4562 4.86954C17.8822 5.13639 18.2299 5.51126 18.4641 5.95609L18.5196 6.06701L17.4865 6.92415L17.3958 6.75777C17.2593 6.4903 17.0637 6.2575 16.8238 6.0771V8.8149L17.552 9.52582C17.5971 9.42295 17.6341 9.31675 17.6629 9.20818C17.7144 9.01096 17.7465 8.80915 17.7586 8.60566V8.45944H19.1545V8.62078C19.143 9.00099 19.075 9.37737 18.9529 9.73759C18.8497 10.0351 18.7119 10.3194 18.5422 10.5846C18.7614 10.8367 18.9807 11.0662 19.1999 11.3107C19.4191 11.5552 19.6458 11.8149 19.7945 11.9914L20.0112 12.2435H18.1416L18.0937 12.193C18.0013 12.0939 17.8997 11.9804 17.7888 11.8527C17.7158 11.767 17.6452 11.6863 17.5772 11.6006C17.3422 11.7709 17.0886 11.9139 16.8213 12.0267V15.9619H31.9998V0.835938H16.8314V4.56702ZM25.8216 9.60902C25.3334 9.43034 24.826 9.30935 24.3098 9.24851C23.5654 9.15727 22.8513 8.89872 22.221 8.49221C21.6595 8.11038 21.337 7.46393 21.3693 6.7855C21.3603 6.30963 21.5221 5.8463 21.8254 5.47962C22.1402 5.11216 22.5447 4.8325 22.9995 4.66786C24.1161 4.27415 25.3383 4.30466 26.4339 4.75357C26.9426 4.98113 27.3786 5.34494 27.6937 5.80483L27.8146 5.98382L26.6682 7.18129L26.4817 6.92919C26.2696 6.63707 25.995 6.39594 25.678 6.22331C25.3285 6.04017 24.9385 5.94825 24.5441 5.95609C24.1633 5.942 23.785 6.02256 23.443 6.19054C23.2245 6.28223 23.0838 6.49773 23.0877 6.73475C23.0916 6.97176 23.2393 7.18254 23.4606 7.26701C23.8855 7.4414 24.3309 7.56085 24.786 7.62247C25.1608 7.67809 25.5326 7.75298 25.8997 7.84684C26.244 7.93523 26.5765 8.06473 26.8899 8.23255C27.1838 8.39136 27.4372 8.61562 27.6307 8.88801C27.8275 9.18672 27.9278 9.53876 27.918 9.89641C27.9273 10.3922 27.7781 10.878 27.4921 11.283C27.1909 11.6858 26.7834 11.9966 26.3154 12.1804C25.7534 12.398 25.1541 12.5025 24.5517 12.488C23.8886 12.4965 23.2303 12.3749 22.614 12.13C22.0093 11.8758 21.4782 11.4735 21.0695 10.9603L20.9334 10.7914L22.0043 9.44515L22.2159 9.69725C22.5196 10.0645 22.8814 10.3796 23.2868 10.63C23.6928 10.8479 24.1492 10.954 24.6096 10.9376C24.8849 10.9384 25.1589 10.9002 25.4235 10.8241C25.6447 10.7701 25.8501 10.6648 26.0232 10.5166C26.1455 10.4136 26.2141 10.2605 26.2096 10.1006C26.2046 9.94683 26.1718 9.74263 25.8241 9.59893L25.8216 9.60902Z" fill="#3367B1"/>
</svg>
