<svg width="80" height="69" viewBox="0 0 80 69" fill="none" xmlns="http://www.w3.org/2000/svg">
<path d="M44.7628 68.9113H0V61.3004C0 59.7524 1.29 58.4624 2.83799 58.4624H41.9248C43.4728 58.4624 44.7628 59.7524 44.7628 61.3004V68.9113Z" fill="#3265B1"/>
<path d="M39.2157 57.0431H5.54688V51.6251C5.54688 50.0771 6.83686 48.7871 8.38486 48.7871H36.5067C38.0547 48.7871 39.3447 50.0771 39.3447 51.6251V57.0431H39.2157Z" fill="#3265B1"/>
<path d="M43.2809 14.6269L27.4434 8.02832L21.6882 21.8415L37.5258 28.44L43.2809 14.6269Z" fill="#A6C3EE"/>
<path d="M76.2389 40.4023L40.1191 25.3093L42.8281 18.8594L78.9479 33.9523C79.8509 34.3393 80.2379 35.3713 79.8509 36.2743L78.5609 39.3703C78.1739 40.4022 77.1419 40.7893 76.2389 40.4023Z" fill="#3265B1"/>
<path d="M43.86 13.5703L27.606 6.86238C26.961 6.60438 26.574 5.83036 26.961 5.18537L28.767 0.799401C29.025 0.154404 29.799 -0.232594 30.444 0.154404L46.6979 6.86238C47.3429 7.12038 47.7299 7.89436 47.3429 8.53936L45.5369 12.9253C45.2789 13.5703 44.5049 13.8283 43.86 13.5703Z" fill="#3265B1"/>
<path d="M37.1522 29.6955L20.8983 22.9875C20.2533 22.7295 19.4793 22.9875 19.2213 23.6325L17.4153 28.0185C17.1573 28.6635 17.4153 29.4375 18.0603 29.6955L34.3142 36.4035C34.9592 36.6615 35.7332 36.4035 35.9912 35.7585L37.7972 31.3725C38.1842 30.7275 37.7972 29.9535 37.1522 29.6955Z" fill="#3265B1"/>
<path d="M0.257658 42.8534C0.257658 43.2404 0.128661 43.4984 0.128661 43.8854C-0.000338353 44.7884 0.644654 45.5624 1.67665 45.5624H13.4156L2.32165 41.6924C1.41865 41.4344 0.515657 41.9504 0.257658 42.8534Z" fill="#A6C3EE"/>
<path d="M44.5046 43.369C44.7626 44.53 43.7306 45.562 42.5696 45.562H31.3467L42.0536 41.95C43.0856 41.434 44.2466 42.208 44.5046 43.369Z" fill="#A6C3EE"/>
<path d="M4.77292 38.0802C4.38592 38.9832 4.77291 39.8862 5.54691 40.2732L14.0609 43.2402L6.9659 37.6932C6.3209 37.0482 5.15991 37.3062 4.77292 38.0802Z" fill="#A6C3EE"/>
<path d="M3.99902 39.6284L14.19 43.1114L3.99902 39.6284Z" fill="#A6C3EE"/>
</svg>
