<svg width="80" height="73" viewBox="0 0 80 73" fill="none" xmlns="http://www.w3.org/2000/svg">
<path d="M9.36322 70.1385C10.0061 70.1385 10.5272 69.6174 10.5272 68.9745C10.5272 68.3316 10.0061 67.8105 9.36322 67.8105C8.72036 67.8105 8.19922 68.3316 8.19922 68.9745C8.19922 69.6174 8.72036 70.1385 9.36322 70.1385Z" fill="white"/>
<path d="M10.6564 72.8548C12.7993 72.8548 14.5364 71.1176 14.5364 68.9748C14.5364 66.8319 12.7993 65.0947 10.6564 65.0947C8.51351 65.0947 6.77637 66.8319 6.77637 68.9748C6.77637 71.1176 8.51351 72.8548 10.6564 72.8548Z" fill="#3265B1"/>
<path d="M68.5978 72.8548C70.7407 72.8548 72.4778 71.1176 72.4778 68.9748C72.4778 66.8319 70.7407 65.0947 68.5978 65.0947C66.4549 65.0947 64.7178 66.8319 64.7178 68.9748C64.7178 71.1176 66.4549 72.8548 68.5978 72.8548Z" fill="#3265B1"/>
<path d="M30.0566 21.4994L31.738 24.6034L53.9835 11.7993L52.3021 8.69531L30.0566 21.4994Z" fill="#A6C3EE"/>
<path d="M29.5391 8.95395C29.6684 7.91928 29.6684 6.88465 29.4097 5.84998C28.2457 1.58195 23.9777 -0.875388 19.7097 0.28862C18.675 0.547288 17.7697 1.06459 16.8643 1.71126L23.2017 5.33261C24.6244 6.10861 25.1417 7.91934 24.2364 9.34202C23.8484 9.98869 23.2017 10.506 22.4257 10.7647C21.6497 11.0233 20.8737 10.894 20.227 10.506L13.8896 6.88463C13.7603 7.91931 13.7603 8.95401 14.019 9.98869C15.183 14.2567 19.451 16.7141 23.719 15.55C24.7537 15.2914 25.6591 14.774 26.5644 14.1273L33.0311 17.878L38.9805 14.5154L29.5391 8.95395Z" fill="#3265B1"/>
<path d="M57.3464 26.0263C58.1224 25.7676 58.8984 25.897 59.5451 26.285L65.8825 29.9063C66.0118 28.8716 66.0118 27.837 65.7531 26.8023C64.5891 22.5343 60.3211 20.0769 56.0531 21.2409C55.0184 21.4996 54.1131 22.0169 53.2077 22.6636L45.965 18.5249L40.0156 21.8876L50.233 27.837C50.1037 28.8717 50.1037 29.9063 50.3624 30.941C51.5264 35.209 55.7944 37.6664 60.0624 36.5024C61.0971 36.2437 62.0024 35.7263 62.9078 35.0797L56.5704 31.4583C55.1477 30.6823 54.6304 28.8717 55.5357 27.449C55.9237 26.673 56.5704 26.1556 57.3464 26.0263Z" fill="#3265B1"/>
<path d="M25.4007 20.7238L12.3379 28.3545C11.4326 28.8719 11.0446 30.0359 11.6912 30.9412L14.5366 35.856C15.0539 36.7613 16.2179 37.1493 17.1233 36.5026L30.186 28.8719C31.0914 28.3545 31.4794 27.1905 30.8327 26.2852L27.9874 21.3705C27.5994 20.5945 26.4353 20.2065 25.4007 20.7238Z" fill="#3265B1"/>
<path d="M63.9423 4.16921L63.037 2.61719L55.5356 4.29852L53.3369 8.17854L55.0183 11.1532L59.4156 11.2826L64.7183 5.59186L63.9423 4.16921Z" fill="#A6C3EE"/>
<path d="M40.5328 67.5516L56.1823 68.3275C56.441 64.3182 58.5103 60.8261 61.6143 58.6275L55.7943 52.8074L37.6875 52.4194C38.9808 56.8168 40.1448 62.2489 40.5328 67.5516Z" fill="#A6C3EE"/>
<path d="M34.4535 52.4196L9.87996 51.9023L6.90527 57.205C8.19862 56.817 9.49197 56.5583 10.9146 56.5583C16.9934 56.5583 21.908 60.8264 23.0721 66.6464L37.4282 67.4225C36.7815 62.1197 35.4881 56.6877 34.4535 52.4196Z" fill="#A6C3EE"/>
<path d="M77.6518 69.8799C77.6518 70.0092 77.6518 70.2679 77.5225 70.3973C77.5225 70.1386 77.6518 70.0092 77.6518 69.8799Z" fill="#A6C3EE"/>
<path d="M77.5219 70.6558C77.5219 70.9144 77.3926 71.1731 77.3926 71.3024C77.3926 71.0438 77.3926 70.9144 77.5219 70.6558Z" fill="#A6C3EE"/>
<path d="M77.1348 72.0787C77.2641 71.82 77.2641 71.5614 77.3934 71.3027C77.2641 71.6907 77.1348 71.82 77.1348 72.0787Z" fill="#A6C3EE"/>
<path d="M9.75098 52.0314L13.243 46.082L9.75098 52.0314Z" fill="white"/>
<path d="M8.8457 60.0508C8.97504 60.0508 9.2337 60.0507 9.36303 59.9214C9.2337 59.9214 9.10437 60.0508 8.8457 60.0508Z" fill="#231F20"/>
<path d="M76.4873 64.5771C76.8753 65.3532 77.2633 66.1291 77.3926 67.0345C77.2633 66.2584 77.0046 65.3532 76.4873 64.5771Z" fill="#231F20"/>
<path d="M70.4092 60.0508C71.3145 60.1801 72.0905 60.5681 72.8665 60.9561C72.0905 60.5681 71.3145 60.1801 70.4092 60.0508Z" fill="#231F20"/>
<path d="M68.5977 59.9214C69.2443 59.9214 69.891 59.9214 70.4083 60.0508C69.7617 59.9214 69.115 59.9214 68.5977 59.9214Z" fill="#231F20"/>
<path d="M75.582 63.1543C75.97 63.5423 76.2287 64.0597 76.6167 64.577C76.2287 64.0597 75.97 63.6716 75.582 63.1543Z" fill="#231F20"/>
<path d="M72.8662 60.9561C73.3835 61.2147 73.9009 61.6027 74.2889 61.9907C73.9009 61.6027 73.3835 61.2147 72.8662 60.9561Z" fill="#231F20"/>
<path d="M56.4404 71.6909C57.6044 71.8203 58.7684 71.8202 59.9325 71.8202L56.4404 71.6909Z" fill="#231F20"/>
<path d="M59.416 68.9746C59.416 69.4919 59.416 69.8799 59.5453 70.268C59.416 69.8799 59.416 69.3626 59.416 68.9746Z" fill="#231F20"/>
<path d="M59.5449 70.5264C59.6743 70.9144 59.6743 71.4317 59.8036 71.8197C59.8036 71.4317 59.6743 70.9144 59.5449 70.5264Z" fill="#231F20"/>
<path d="M79.7206 63.6717C79.5913 63.1544 79.462 62.7664 79.2033 62.3784C78.8153 60.9557 78.686 60.4384 78.1686 59.0157C78.1686 59.0157 78.1686 59.0157 78.1686 58.8863C77.2633 59.0157 75.9699 58.757 74.0299 58.1103C70.9259 57.205 66.2699 55.9117 60.8378 55.5237L58.1218 52.8076L50.6204 45.3062C49.3271 44.0129 47.6457 43.3662 45.9644 43.3662H13.6308C12.4668 43.3662 11.1735 43.8835 10.2682 44.6596C7.8108 46.8582 6.64679 48.6689 5.35345 51.7729C2.63743 53.5836 1.73208 55.9116 1.60275 59.7917C0.956075 60.697 0.568072 61.6024 0.309404 62.637C0.0507352 63.8011 -0.0785951 64.9651 0.0507391 65.8704C0.0507391 67.0344 0.826756 68.0691 1.86143 68.4571C1.99076 66.9051 2.37876 65.4824 3.02543 64.3184C3.15476 64.0597 3.2841 63.801 3.41344 63.6717C3.54277 63.413 3.6721 63.2837 3.93077 63.025C3.93077 63.025 3.93077 63.0251 3.93077 62.8957C4.0601 62.7664 4.31878 62.5077 4.44811 62.3784L4.57744 62.2491C4.70677 62.1197 4.96545 61.9904 5.09479 61.7317L5.22411 61.6024C5.35344 61.4731 5.61212 61.3437 5.74146 61.2143C5.87079 61.2143 5.87079 61.085 6.00012 61.085C6.12946 60.9557 6.38812 60.8263 6.51745 60.8263C6.64678 60.8263 6.77611 60.697 6.77611 60.697C6.90545 60.5677 7.0348 60.5677 7.29346 60.4383C7.4228 60.4383 7.55214 60.309 7.68147 60.309C7.8108 60.309 7.94012 60.1797 8.06946 60.1797C8.19879 60.1797 8.32813 60.0504 8.45746 60.0504C8.5868 60.0504 8.71614 59.921 8.84547 59.921C8.9748 59.921 9.23347 59.921 9.3628 59.7917C9.49213 59.7917 9.62147 59.7917 9.75081 59.7917C10.0095 59.7917 10.3975 59.7917 10.6561 59.7917C14.7948 59.7917 18.2869 62.5077 19.4509 66.3877C19.7095 67.1637 19.8389 68.069 19.8389 68.9744C19.8389 69.233 19.8389 69.4918 19.8389 69.7504C20.8736 69.7504 22.0376 69.8797 23.0722 69.8797C33.5483 70.5264 45.9644 71.1731 56.4405 71.5611L59.9325 71.6904C59.8032 71.3024 59.6738 70.7851 59.6738 70.3971C59.6738 70.2678 59.6738 70.2677 59.6738 70.1384C59.5445 69.7504 59.5445 69.2331 59.5445 68.8451C59.5445 68.7157 59.5445 68.5864 59.5445 68.3277C59.8032 63.5423 63.8125 59.6624 68.5979 59.6624C69.2446 59.6624 69.8912 59.6623 70.4086 59.7917C71.3139 59.921 72.0899 60.309 72.8659 60.697C73.3833 60.9557 73.9006 61.3437 74.2886 61.7317C74.6766 62.1197 75.1939 62.5077 75.5819 63.025C75.9699 63.413 76.2286 63.9303 76.6166 64.4477C77.0046 65.2237 77.3926 65.9997 77.522 66.9051C77.6513 67.5517 77.6513 68.0691 77.6513 68.7158C77.6513 68.9744 77.6513 69.233 77.6513 69.621C77.6513 69.7504 77.6513 70.0091 77.522 70.1384C77.522 70.2677 77.522 70.2678 77.522 70.3971C77.522 70.6558 77.3926 70.9144 77.3926 71.0438C77.3926 71.0438 77.3926 71.0437 77.3926 71.1731C77.2633 71.4317 77.2633 71.6905 77.1339 71.9491C78.686 71.3025 79.7206 69.6211 79.9793 67.8104C79.9793 66.9051 80.1086 65.0944 79.7206 63.6717ZM22.8136 66.6464C21.6496 60.9557 16.7349 56.5583 10.6561 56.5583C9.23347 56.5583 7.94014 56.817 6.64679 57.205L9.62148 51.9023L12.9842 45.9529C13.3722 45.3062 14.1482 44.9182 14.9242 44.9182H32.1256C32.1256 44.9182 33.1603 48.0222 34.3243 52.4196C35.4883 56.5583 36.6523 62.1197 37.1697 67.293L22.8136 66.6464ZM56.1818 68.3277L40.5324 67.5517C40.015 62.249 38.9803 56.817 37.8163 52.549C36.911 49.1863 36.135 46.4702 35.6177 45.0475H45.8351C47.2577 45.0475 48.5511 45.5649 49.4564 46.5996L55.9231 53.0663L61.7432 58.8863C58.5098 60.8263 56.4405 64.3183 56.1818 68.3277Z" fill="#3265B1"/>
<path d="M63.1661 54.4896C67.1755 52.8083 70.9262 51.9029 73.5128 51.2562C75.4529 50.7389 76.7462 50.4802 77.5222 49.8335C77.3929 49.7042 77.2635 49.7042 77.1342 49.5748C76.6169 49.3162 76.0995 49.1869 75.4529 49.0575C71.4435 48.5402 64.2008 51.2562 60.1914 53.0669L61.3554 54.2309C61.8728 54.4896 62.5194 54.4896 63.1661 54.4896Z" fill="#3265B1"/>
</svg>
