<svg width="62" height="70" viewBox="0 0 62 70" fill="none" xmlns="http://www.w3.org/2000/svg">
<path d="M30.7923 0C25.26 0 20.5181 3.27414 18.4858 8.12898H43.2116C41.0665 3.27414 36.3245 0 30.7923 0Z" fill="#3265B1"/>
<path d="M17.3564 13.4353C17.3564 20.8869 23.3403 26.8708 30.7919 26.8708C38.2435 26.8708 44.2274 20.8869 44.2274 13.4353C44.2274 12.3063 44.1145 11.2902 43.7758 10.1611H17.6951C17.5822 11.1773 17.3564 12.3063 17.3564 13.4353Z" fill="#A6C3EE"/>
<path d="M34.2922 35.3386L33.8406 30.5967H30.7922H27.8568L27.4051 35.3386L26.0503 49.4515L27.9697 56.4515H33.7277L35.6471 49.4515L34.2922 35.3386Z" fill="#A6C3EE"/>
<path d="M4.03403 42.79C3.69532 43.8062 1.77598 49.5642 0.308234 53.9675C-0.707895 56.903 0.872757 60.1771 3.80824 61.3062L12.3889 64.5803L29.776 62.8868L20.8566 30.7094C12.9534 30.5965 6.29209 35.6771 4.03403 42.79Z" fill="#A6C3EE"/>
<path d="M57.6628 42.79C58.0015 43.8062 59.9209 49.5642 61.3886 53.9675C62.4048 56.903 60.8241 60.1771 57.8886 61.3062L49.308 64.5803L31.9209 62.8868L40.8402 30.7094C48.7435 30.5965 55.2919 35.6771 57.6628 42.79Z" fill="#A6C3EE"/>
<path d="M30.792 38.9517H10.2436C9.56617 38.9517 9.00165 39.5161 9.11456 40.1936L12.2759 64.4678H49.3081L52.4694 40.1936C52.5823 39.5161 52.0178 38.9517 51.3404 38.9517H30.792Z" fill="#3265B1"/>
<path d="M50.2115 66.7261H11.5986V70.0003H50.2115V66.7261Z" fill="#3265B1"/>
<path d="M30.7919 55.5482C32.4132 55.5482 33.7274 54.2339 33.7274 52.6127C33.7274 50.9915 32.4132 49.6772 30.7919 49.6772C29.1707 49.6772 27.8564 50.9915 27.8564 52.6127C27.8564 54.2339 29.1707 55.5482 30.7919 55.5482Z" fill="white"/>
</svg>
