<svg width="80" height="49" viewBox="0 0 80 49" fill="none" xmlns="http://www.w3.org/2000/svg">
<path d="M53.5303 22.1689C53.38 21.2675 53.2298 20.9671 52.7791 20.0656C51.5772 16.9107 39.7087 16.0094 39.7087 16.0094L34.9012 11.2019C34.1501 10.4507 32.9482 10 31.8966 10H10.8638C10.1126 10 9.21122 10.3004 8.61029 10.9014C6.95771 12.2535 6.20656 13.4554 5.45539 15.5586C3.65258 16.7605 3.05163 18.2628 3.05163 20.6666C2.15023 21.8684 2 23.521 2 24.5727C2 25.3238 2.45071 26.075 3.20188 26.2253C3.35211 23.0703 5.90608 20.5164 9.06099 20.5164C12.3661 20.5164 14.9201 23.2206 14.9201 26.3755C14.9201 26.5257 14.9201 26.6759 14.9201 26.8262C22.8825 27.2769 33.0984 27.8778 40.9106 28.1783C40.7604 27.5773 40.6101 26.9764 40.6101 26.3755C40.6101 23.0703 43.3143 20.5164 46.4692 20.5164C49.6242 20.5164 52.3284 23.2206 52.3284 26.3755C52.3284 27.1267 52.1782 27.7276 51.8777 28.4788C52.9293 28.1783 53.6805 26.9764 53.6805 25.7746C53.981 24.8732 54.1312 23.2206 53.5303 22.1689ZM8.91075 15.4084C8.61028 15.4084 8.46005 15.1079 8.61029 14.9577L10.5633 11.5023C10.8638 11.0516 11.3145 10.7512 11.7652 10.7512H22.8825C22.8825 10.7512 23.6337 12.7042 24.3849 15.5586L8.91075 15.4084ZM26.6384 15.8591C26.0374 13.6056 25.4365 11.8028 25.136 10.9014H31.7463C32.6477 10.9014 33.5491 11.2019 34.1501 11.953L38.3566 16.1596L26.6384 15.8591Z" fill="#A6C3EE"/>
<path d="M9.06088 22.1689C6.65713 22.1689 4.7041 24.122 4.7041 26.3755C4.7041 28.7793 6.65713 30.7323 9.06088 30.7323C11.3144 30.7323 13.1172 29.0797 13.4177 26.8262C13.4177 26.676 13.4177 26.5258 13.4177 26.3755C13.4177 24.122 11.4646 22.1689 9.06088 22.1689ZM9.06088 28.1783C8.15947 28.1783 7.4083 27.4272 7.4083 26.5258C7.4083 26.5258 7.4083 26.5258 7.4083 26.3755C7.4083 25.4741 8.15947 24.7229 9.06088 24.7229C9.96228 24.7229 10.7135 25.4741 10.7135 26.3755C10.7135 26.5258 10.7135 26.5257 10.7135 26.676C10.5632 27.5774 9.96228 28.1783 9.06088 28.1783Z" fill="#A6C3EE"/>
<path d="M46.6195 22.1689C44.2157 22.1689 42.2627 24.122 42.2627 26.5258C42.2627 27.2769 42.4129 27.8779 42.7134 28.4788C43.4645 29.8309 44.8167 30.8825 46.6195 30.8825C48.272 30.8825 49.6242 29.9811 50.3753 28.7793C50.6758 28.1783 50.9762 27.4271 50.9762 26.676C50.826 24.122 48.873 22.1689 46.6195 22.1689ZM46.6195 24.7229C47.5209 24.7229 48.2721 25.4741 48.2721 26.3755C48.2721 27.2769 47.5209 28.0281 46.6195 28.0281C45.7181 28.0281 44.9669 27.2769 44.9669 26.3755C44.8167 25.4741 45.5678 24.7229 46.6195 24.7229Z" fill="#A6C3EE"/>
<path d="M61.9638 0H57.3262V3.09172H69.9508C68.2761 0.772925 65.1843 0 61.9638 0Z" fill="#3265B1"/>
<path d="M77.4221 20.6116V13.14C77.4221 10.6923 79.9986 10.5635 79.9986 10.5635C79.9986 10.5635 80.1274 7.60061 77.9374 6.18357C74.8457 3.86477 70.3369 3.86475 70.3369 3.86475H57.197V30.4021H58.6141V32.7209H0V34.6532V39.6773H7.21403C7.98696 37.4874 9.53284 35.6838 11.594 34.6532C12.7534 34.138 13.9128 33.8803 15.201 33.8803C16.4892 33.8803 17.7775 34.138 18.808 34.6532C20.8692 35.6838 22.5439 37.4874 23.188 39.6773H58.8717C59.6447 37.4874 61.1905 35.6838 63.2517 34.6532C64.4111 34.138 65.5705 33.8803 66.8587 33.8803C68.1469 33.8803 69.4352 34.138 70.4657 34.6532C72.5269 35.6838 74.2016 37.4874 74.8457 39.6773H77.551C78.8392 39.6773 79.8697 38.6467 79.8697 37.3585V34.6532V32.7209V22.9305C77.4221 22.2863 77.4221 20.6116 77.4221 20.6116ZM66.7299 10.5635H75.6186C76.1339 10.5635 76.5204 10.95 76.5204 11.4652V20.7405C76.5204 21.3846 75.8763 21.7711 75.361 21.6422L66.7299 19.1946V10.5635ZM60.5464 11.4652C60.5464 10.95 60.9329 10.5635 61.4482 10.5635H65.8281V18.8081L61.4482 17.5199C60.9329 17.3911 60.5464 16.8758 60.5464 16.3605V11.4652Z" fill="#3265B1"/>
<path d="M15.33 36.1992C12.8823 36.1992 10.6924 37.6162 9.7906 39.8062C9.40413 40.5792 9.14648 41.4809 9.14648 42.3827C9.14648 45.8609 11.9806 48.5662 15.33 48.5662C18.8082 48.5662 21.5134 45.732 21.5134 42.3827C21.5134 41.4809 21.2558 40.5792 20.8693 39.8062C19.9676 37.6162 17.7776 36.1992 15.33 36.1992ZM15.33 44.8303C14.0417 44.8303 12.8823 43.6709 12.8823 42.3827C12.8823 41.0944 14.0417 39.9351 15.33 39.9351C16.6182 39.9351 17.7776 41.0944 17.7776 42.3827C17.7776 43.6709 16.6182 44.8303 15.33 44.8303Z" fill="#3265B1"/>
<path d="M66.9872 36.1992C64.5396 36.1992 62.3496 37.6162 61.4478 39.8062C61.0614 40.5792 60.8037 41.4809 60.8037 42.3827C60.8037 45.8609 63.6378 48.5662 66.9872 48.5662C70.4654 48.5662 73.1707 45.732 73.1707 42.3827C73.1707 41.4809 72.913 40.5792 72.5265 39.8062C71.6248 37.6162 69.4348 36.1992 66.9872 36.1992ZM66.9872 44.8303C65.699 44.8303 64.5395 43.6709 64.5395 42.3827C64.5395 41.0944 65.699 39.9351 66.9872 39.9351C68.2754 39.9351 69.4348 41.0944 69.4348 42.3827C69.4348 43.6709 68.2754 44.8303 66.9872 44.8303Z" fill="#3265B1"/>
</svg>
