<svg width="80" height="71" viewBox="0 0 80 71" fill="none" xmlns="http://www.w3.org/2000/svg">
<path d="M3.83398 28.6263V38.8499C3.83398 39.2333 4.08958 39.4889 4.47296 39.4889H22.6199C23.0033 39.4889 23.2589 39.2333 23.2589 38.8499V28.6263C23.2589 28.2429 23.0033 27.9873 22.6199 27.9873H4.47296C4.08958 27.9873 3.83398 28.2429 3.83398 28.6263ZM6.64546 38.2109H6.13429V29.1375H6.64546V38.2109ZM9.45698 38.2109H8.9458V29.1375H9.45698V38.2109ZM12.3963 38.2109H11.8851V29.1375H12.3963V38.2109ZM15.2078 38.2109H14.6966V29.1375H15.2078V38.2109ZM18.0193 38.2109H17.5081V29.1375H18.0193V38.2109ZM20.8308 38.2109H20.3196V29.1375H20.8308V38.2109Z" fill="#A6C3EE"/>
<path d="M26.0703 28.6263V38.8499C26.0703 39.2333 26.3259 39.4889 26.7093 39.4889H44.8563C45.2397 39.4889 45.4952 39.2333 45.4952 38.8499V28.6263C45.4952 28.2429 45.2397 27.9873 44.8563 27.9873H26.7093C26.3259 27.9873 26.0703 28.2429 26.0703 28.6263ZM28.8818 38.2109H28.3706V29.1375H28.8818V38.2109ZM31.6933 38.2109H31.1821V29.1375H31.6933V38.2109ZM34.6326 38.2109H34.1214V29.1375H34.6326V38.2109ZM37.4441 38.2109H36.9329V29.1375H37.4441V38.2109ZM40.2556 38.2109H39.7444V29.1375H40.2556V38.2109ZM43.0671 38.2109H42.5559V29.1375H43.0671V38.2109Z" fill="#A6C3EE"/>
<path d="M59.936 17.5083H50.6069V26.8374H59.936V17.5083Z" fill="#3265B1"/>
<path d="M59.8084 17.6357H50.8627C50.8627 17.6357 50.7349 17.6357 50.7349 17.7635V26.7092C50.7349 26.7092 50.7349 26.837 50.8627 26.837H59.8084C59.8084 26.837 59.9362 26.837 59.9362 26.7092L59.8084 17.6357C59.9361 17.6357 59.8084 17.6357 59.8084 17.6357Z" fill="#3265B1"/>
<path d="M47.2841 20.4473L49.4566 20.0639V18.786L47.1563 19.2971L48.9455 12.5239L53.8017 16.3578H55.8464L35.1436 0V6.64538V26.7093H36.4215V8.30671L49.4566 25.3035V23.2588L47.2841 20.4473ZM36.2937 6.26197V2.68371L40.7665 6.26197L39.6164 10.607L36.2937 6.26197ZM41.9167 7.02875L46.2617 10.4792L40.6387 11.6294L41.9167 7.02875ZM41.4055 12.7796L47.6675 11.5016L47.7953 11.6294L46.0062 18.6582L41.4055 12.7796Z" fill="#3265B1"/>
<path d="M56.7412 34.6324L57.508 33.3545V26.8369H53.0352V39.6165H53.9297L56.7412 34.6324Z" fill="#3265B1"/>
<path d="M10.3516 61.2143C12.6519 61.2143 13.6743 60.4475 14.9522 59.6807C16.2302 58.7862 17.636 57.8916 20.3197 57.8916C23.0034 57.8916 24.4091 58.914 25.6871 59.6807C26.965 60.5753 27.9874 61.2143 30.2877 61.2143C32.588 61.2143 33.6104 60.4475 34.8883 59.6807C36.1663 58.7862 37.5721 57.8916 40.2558 57.8916C42.9395 57.8916 44.3452 58.914 45.6232 59.6807C46.9011 60.5753 47.9235 61.2143 50.2238 61.2143C52.5241 61.2143 53.5465 60.4475 54.8245 59.6807C56.1024 58.7862 57.5082 57.8916 60.1919 57.8916C62.7478 57.8916 64.1535 58.7862 65.4315 59.5529L80.0002 34.6328H58.5305L54.8245 40.8948H0.63916L3.57844 58.4028C4.60081 58.7862 5.36757 59.2973 6.00655 59.8085C7.02891 60.4475 8.05131 61.2143 10.3516 61.2143Z" fill="#3265B1"/>
<path d="M75.1437 60.8304C73.8658 61.725 72.4601 62.6196 69.7764 62.6196C67.0927 62.6196 65.6869 61.5972 64.4089 60.8304C63.131 59.9359 62.1086 59.2969 59.8083 59.2969C57.508 59.2969 56.4856 60.0637 55.2076 60.8304C53.9297 61.725 52.524 62.6196 49.8402 62.6196C47.1565 62.6196 45.7508 61.5972 44.4728 60.8304C43.1949 59.9359 42.1725 59.2969 39.8722 59.2969C37.5719 59.2969 36.5495 60.0637 35.2716 60.8304C33.9936 61.725 32.5878 62.6196 29.9041 62.6196C27.2204 62.6196 25.8147 61.5972 24.5367 60.8304C23.2588 59.9359 22.2364 59.2969 19.9361 59.2969C17.6358 59.2969 16.6134 60.0637 15.3355 60.8304C14.0575 61.725 12.6517 62.6196 9.96803 62.6196C7.28433 62.6196 5.8786 61.5972 4.60065 60.8304C3.32269 59.9359 2.30032 59.2969 0 59.2969L1.02235 65.8145C1.40574 68.2426 3.57825 70.1595 6.00637 70.1595H39.4888H69.9041C71.6933 70.1595 73.3546 69.1371 74.377 67.6036L79.2332 59.4247C77.4441 59.2969 76.4217 60.0637 75.1437 60.8304Z" fill="#A6C3EE"/>
</svg>
