<svg width="75" height="74" viewBox="0 0 75 74" fill="none" xmlns="http://www.w3.org/2000/svg">
<path d="M57.913 12.6311H56.0063C56.1255 17.0401 59.7004 20.615 64.2286 20.615C68.7567 20.615 72.4508 16.921 72.4508 12.3928C72.4508 11.9162 72.4508 11.5587 72.3316 11.082H62.0836C60.892 12.0353 59.4621 12.6311 57.913 12.6311Z" fill="#A6C3EE"/>
<path d="M52.6699 0L55.7682 5.839H72.5701L74.8342 2.14495L52.6699 0Z" fill="#3265B1"/>
<path d="M65.5395 6.55371L63.3946 9.65195C63.2754 9.89027 63.0371 10.1286 62.918 10.3669H71.9743V6.67288H65.5395V6.55371Z" fill="#3265B1"/>
<path d="M56.2448 6.55371L52.6699 11.7969H57.9131C58.8664 11.7969 59.9388 11.5586 60.773 11.0819C61.1305 10.8436 61.4879 10.6053 61.8454 10.3669C62.2029 10.0094 64.5862 6.67288 64.5862 6.67288H56.2448V6.55371Z" fill="#3265B1"/>
<path d="M42.7794 48.0225H25.2625C23.7134 49.6907 21.6876 50.8824 19.5427 51.7165V71.3783H18.2319V52.074C16.9211 52.4315 15.4912 52.6698 14.0612 52.6698C13.7037 52.6698 13.3462 52.6698 13.1079 52.6698V71.3783H11.7971V52.5506C9.89049 52.3123 8.22222 51.7165 6.55394 50.8824V71.3783H5.24315V50.644H6.19647C5.00484 49.929 3.8132 49.0949 2.8599 48.0225H1.42997C0.71499 48.0225 0 48.6183 0 49.4524V72.57C0 73.2849 0.595828 73.9999 1.42997 73.9999H42.7794C43.4944 73.9999 44.2093 73.4041 44.2093 72.57V49.4524C44.2093 48.6183 43.6135 48.0225 42.7794 48.0225ZM25.9775 71.3783H24.6667V50.644H25.9775V71.3783ZM32.5314 71.3783H31.2206V50.644H32.5314V71.3783ZM38.9662 71.3783H37.6554V50.644H38.9662V71.3783Z" fill="#A6C3EE"/>
<path d="M14.0612 22.9985C6.31561 22.9985 0.119141 29.195 0.119141 36.9405C0.119141 41.4687 2.26408 45.4011 5.60063 48.0227C7.38807 49.4526 9.53297 50.4059 11.7971 50.7634C12.2737 50.8826 12.6312 50.8826 13.1079 50.8826C13.4653 50.8826 13.7037 50.8826 14.0612 50.8826C17.2786 50.8826 20.2576 49.8101 22.6409 47.9035C25.9774 45.4011 28.1224 41.3496 28.1224 36.8214C28.0032 29.3142 21.8068 22.9985 14.0612 22.9985Z" fill="#3265B1"/>
<path d="M12.3928 44.2093L5.95801 37.7746L8.8179 34.9147L12.3928 38.4895L19.3042 31.6973L22.1641 34.438L12.3928 44.2093Z" fill="#F6F7FF"/>
<path d="M54.2192 53.2659V73.881H74.0002V33.4849L54.2192 53.2659Z" fill="#A6C3EE"/>
<path d="M73.6427 26.0965C72.6894 23.7132 70.4253 22.0449 67.6845 22.0449H60.5348C58.7473 22.0449 57.1982 22.7599 56.1257 23.9515L46.7119 33.3654L39.9196 26.5731C38.4897 25.1432 36.1064 25.1432 34.6765 26.5731C33.2465 28.0031 33.2465 30.3863 34.6765 31.8163L41.4688 38.6086L43.6137 40.7535C45.2819 42.4217 48.1419 42.4217 49.8101 40.7535L51.955 38.6086L54.2191 36.3444V45.6391L73.6427 26.0965Z" fill="#A6C3EE"/>
</svg>
