<svg width="80" height="57" viewBox="0 0 80 57" fill="none" xmlns="http://www.w3.org/2000/svg">
<path d="M0 27.3107V46.8921C0 47.5362 0.5153 48.0515 1.15942 48.0515H36.0709C36.715 48.0515 37.2303 47.5362 37.2303 46.8921V27.3107C37.2303 26.6666 36.715 26.1514 36.0709 26.1514H1.15942C0.5153 26.1514 0 26.6666 0 27.3107ZM5.41063 45.8615H4.38003V28.3414H5.41063V45.8615ZM10.9501 45.8615H9.91949V28.3414H10.9501V45.8615ZM16.3607 45.8615H15.3301V28.3414H16.3607V45.8615ZM21.9002 45.8615H20.8696V28.3414H21.9002V45.8615ZM27.3108 45.8615H26.2802V28.3414H27.3108V45.8615ZM32.8502 45.8615H31.8196V28.3414H32.8502V45.8615Z" fill="#A6C3EE"/>
<path d="M42.7695 27.3107V46.8921C42.7695 47.5362 43.2848 48.0515 43.929 48.0515H78.8404C79.4845 48.0515 79.9998 47.5362 79.9998 46.8921V27.3107C79.9998 26.6666 79.4845 26.1514 78.8404 26.1514H43.929C43.2848 26.1514 42.7695 26.6666 42.7695 27.3107ZM48.1802 45.8615H47.1496V28.3414H48.1802V45.8615ZM53.5908 45.8615H52.5602V28.3414H53.5908V45.8615ZM59.1302 45.8615H58.0996V28.3414H59.1302V45.8615ZM64.5409 45.8615H63.5103V28.3414H64.5409V45.8615ZM70.0803 45.8615H69.0497V28.3414H70.0803V45.8615ZM75.4909 45.8615H74.4603V28.3414H75.4909V45.8615Z" fill="#A6C3EE"/>
<path d="M32.2061 51.272H20.9984H16.1031H4.89533H0V56.1673H4.89533V53.462H16.1031V56.1673H20.9984V53.462H32.2061V56.1673H37.2303V51.272H32.2061Z" fill="#3265B1"/>
<path d="M74.9756 51.272H63.7679H58.8726H47.6649H42.7695V56.1673H47.6649V53.462H58.8726V56.1673H63.7679V53.462H74.9756V56.1673H79.871V51.272H74.9756Z" fill="#3265B1"/>
<path d="M41.095 19.5811H39.9355V20.6117V36.4571C40.322 36.3283 40.7085 36.0706 41.095 35.813C42.7697 34.9112 44.3156 34.0094 45.7326 32.9788C47.665 31.5618 49.3397 30.0159 50.7568 28.3412C52.045 26.7953 52.9468 24.9917 53.5909 23.0593C53.8486 22.2864 53.9774 21.3847 54.1062 20.6117C54.1062 20.2252 54.2351 19.9675 54.2351 19.5811H41.095Z" fill="#F6F7FF"/>
<path d="M39.9357 0C35.5557 3.99356 29.7586 6.44122 23.3174 6.44122V18.1642C23.3174 18.6795 23.3174 19.1948 23.3174 19.7101C23.575 23.446 24.9921 27.0531 27.3109 29.8872C29.7586 32.8502 33.6233 36.1997 39.9357 39.0338C46.1193 36.1997 49.984 32.8502 52.5605 29.8872C54.8794 27.0531 56.2964 23.446 56.5541 19.7101C56.5541 19.1948 56.5541 18.6795 56.5541 18.1642V6.44122C50.1129 6.3124 44.3158 3.99356 39.9357 0ZM54.1064 20.6119C53.9776 21.5137 53.8488 22.2866 53.5911 23.0595C52.947 24.9919 52.0452 26.7955 50.757 28.3414C49.3399 30.0161 47.6652 31.562 45.7328 32.979C44.3158 34.0096 42.7699 34.9114 41.0952 35.8132C40.7087 36.0708 40.3222 36.1997 39.9357 36.4573V20.6119V19.5813H38.7763H25.6362C25.6362 19.1948 25.6362 18.6795 25.5074 18.293C25.5074 18.1642 25.5074 18.1643 25.5074 18.0354V8.50238C26.6668 8.37356 27.8262 8.2447 28.9857 7.98705C29.7586 7.85823 30.5315 7.60058 31.3045 7.34293C32.0774 7.08528 32.8504 6.8277 33.6233 6.44122C34.3963 6.18357 35.1692 5.79704 35.8134 5.41056C36.5863 5.02409 37.2304 4.63762 37.8745 4.12232C38.1322 3.9935 38.3898 3.86472 38.5187 3.60707C38.9051 3.34942 39.2916 3.09172 39.6781 2.83408V18.293V19.5813H40.8375H53.9776C54.2352 19.9677 54.1064 20.2254 54.1064 20.6119Z" fill="#3265B1"/>
<path d="M38.7759 3.73581C38.5183 3.86463 38.2606 3.99349 38.1318 4.25114C37.4877 4.63761 36.7147 5.15291 36.0706 5.53938C34.6535 6.31233 33.1076 6.95645 31.5617 7.47175C30.7888 7.7294 30.0159 7.98704 29.2429 8.11587C28.0835 8.37352 26.9241 8.5023 25.7646 8.63112V18.1642C25.7646 18.293 25.7646 18.293 25.7646 18.4218C25.7646 18.8083 25.7647 19.3236 25.8935 19.7101H39.0336H40.193V18.4218V2.96289C39.5489 3.22054 39.1624 3.47816 38.7759 3.73581Z" fill="#F6F7FF"/>
</svg>
