<svg width="61" height="75" viewBox="0 0 61 75" fill="none" xmlns="http://www.w3.org/2000/svg">
<path d="M59.1355 4.19371C54.3014 5.72027 49.0857 5.84742 44.2515 4.44808L29.1131 0.122867C27.9682 -0.13156 26.8233 -0.00439319 25.9328 0.631674L1.76225 17.2967C0.108471 18.4416 -0.527596 20.7314 0.490111 22.5124C1.25339 23.7845 2.52553 24.4206 3.79767 24.4206C4.56095 24.4206 5.32423 24.1662 5.96029 23.7845L12.7026 19.0776C12.7026 18.696 12.7026 18.3144 12.7026 17.9327C13.0842 15.1341 15.6285 12.9714 18.5544 12.9714H21.4803L25.9328 9.91832C26.8233 9.28225 28.0954 9.02779 29.1131 9.40943L34.965 11.0632C36.8732 11.572 37.0004 14.1163 35.0922 14.8796H18.4272C16.3918 14.8796 14.6108 16.4062 14.4836 18.3144C14.2292 20.6042 16.0102 22.5124 18.3 22.5124H39.163C41.9617 22.5124 44.6332 22.1308 47.3047 21.2403L60.6621 17.0422V3.68483L59.1355 4.19371Z" fill="#A6C3EE"/>
<path d="M1.63496 70.6702C6.46907 69.1437 11.6848 69.0165 16.5189 70.4158L31.6573 74.7411C32.8022 74.9955 33.9472 74.8683 34.8377 74.2322L59.0082 57.5673C60.662 56.4224 61.298 54.1325 60.2803 52.3516C59.5171 51.0794 58.2449 50.4434 56.9728 50.4434C56.2095 50.4434 55.4462 50.6978 54.8102 51.0794L48.0679 55.7863C48.0679 56.1679 48.0679 56.5496 48.0679 56.9312C47.6862 59.7299 45.1419 61.8926 42.216 61.8926H39.2901L34.8377 64.9456C33.9472 65.5817 32.675 65.8362 31.6573 65.4545L25.8055 63.8008C23.8973 63.2919 23.7701 60.7476 25.6783 59.9844H42.3433C44.3787 59.9844 46.1596 58.4578 46.2869 56.5496C46.5413 54.2597 44.7603 52.3516 42.4705 52.3516H21.6075C18.8088 52.3516 16.1373 52.7332 13.4658 53.6237L0.108398 57.8217V71.1791L1.63496 70.6702Z" fill="#A6C3EE"/>
<path d="M30.3857 50.9165C37.7628 50.9165 43.7431 44.9362 43.7431 37.5591C43.7431 30.182 37.7628 24.2017 30.3857 24.2017C23.0086 24.2017 17.0283 30.182 17.0283 37.5591C17.0283 44.9362 23.0086 50.9165 30.3857 50.9165Z" fill="#3265B1"/>
<path d="M31.9115 36.414H28.8584C27.9679 36.414 27.3318 35.6507 27.3318 34.7603C27.3318 33.8698 28.0951 33.1065 28.8584 33.1065H33.4381H34.583V30.9438H33.4381H28.8584C26.6958 30.9438 25.042 32.7248 25.042 34.7603C25.042 36.9229 26.823 38.5767 28.8584 38.5767H31.9115C32.802 38.5767 33.5653 39.3399 33.5653 40.2304C33.5653 41.1209 32.802 41.8842 31.9115 41.8842H27.3318H26.1869V44.1741H27.3318H31.9115C34.0742 44.1741 35.7279 42.3931 35.7279 40.3577C35.7279 38.195 34.0742 36.414 31.9115 36.414Z" fill="white"/>
<path d="M29.2402 46.3363V47.4813H31.5301V46.3363V44.937H29.2402V46.3363Z" fill="white"/>
<path d="M31.5301 28.7811V27.6362H29.2402V28.7811V30.1805H31.5301V28.7811Z" fill="white"/>
</svg>
