<svg width="71" height="66" viewBox="0 0 71 66" fill="none" xmlns="http://www.w3.org/2000/svg">
<path d="M70.9679 62.0292V28.0707C70.9679 27.1122 70.1463 26.2905 69.1878 26.2905H47.0052L43.9928 31.22L43.445 31.7677H42.6235H17.8392C16.8807 31.7677 16.0591 32.5894 16.0591 33.5479V34.0955H47.2791C48.3745 34.0955 49.4699 34.2325 50.5654 34.6433C53.167 35.4649 55.4948 37.108 56.8641 39.4358C57.138 39.8466 57.4119 40.3943 57.6857 40.942L67.2708 62.8507C67.2708 62.9877 67.4077 62.9877 67.4077 62.9877C67.6815 63.3985 67.9554 63.6723 68.3662 63.8093C68.6401 63.9462 68.777 63.9462 69.0509 63.9462C70.0094 64.0831 70.9679 63.1246 70.9679 62.0292Z" fill="#3265B1"/>
<path d="M10.5821 7.94189H9.4867C8.66513 7.94189 7.98047 8.62651 7.98047 9.44809V34.0954H10.5821V7.94189Z" fill="#A6C3EE"/>
<path d="M14.5529 3.9707H13.4574C12.6358 3.9707 11.9512 4.6554 11.9512 5.47698V34.0952H14.5529V3.9707Z" fill="#A6C3EE"/>
<path d="M17.4286 0C16.607 0 15.9224 0.684614 15.9224 1.50619V33.6846V34.2324H16.4701H47.0054C48.1008 34.2324 49.1962 34.3693 50.2917 34.7801C52.8933 35.6016 55.2211 37.2448 56.5904 39.5726C56.7274 39.8465 56.8643 39.9834 57.0012 40.2572C57.1382 40.5311 57.2751 40.805 57.412 41.0789L59.7398 46.4191V15.8838V1.50619C59.7398 0.684614 59.0552 0 58.2336 0H17.4286Z" fill="#A6C3EE"/>
<path d="M39.3374 19.4439V13.1452H44.5407L37.8312 6.70947L31.1216 13.1452H36.3249V19.4439H39.3374Z" fill="white"/>
<path d="M47.5531 15.4731V24.7843H28.1091V15.4731H25.0967V24.7843C25.0967 26.4275 26.466 27.7968 28.1091 27.7968H47.5531C49.1963 27.7968 50.5656 26.4275 50.5656 24.7843V15.4731H47.5531Z" fill="white"/>
<path d="M65.2171 63.6723L55.632 41.7636C54.1258 38.3403 50.8395 36.1494 47.1424 36.1494H11.2668H4.00953C1.13401 36.1494 -0.783023 39.1619 0.312414 41.7636L9.89749 63.5353C10.5821 65.0416 11.9514 66 13.5946 66H17.5656H66.3125H68.9142C67.4079 66 65.9017 65.0416 65.2171 63.6723Z" fill="#3265B1"/>
</svg>
