<svg width="80" height="60" viewBox="0 0 80 60" fill="none" xmlns="http://www.w3.org/2000/svg">
<path d="M57.7134 54.2423H22.2867C20.612 54.2423 19.3237 52.9541 19.3237 51.2794V43.6787H60.8052V51.2794C60.6764 52.8253 59.3882 54.2423 57.7134 54.2423Z" fill="#A6C3EE"/>
<path d="M57.7134 54.2423H22.2867C20.612 54.2423 19.3237 52.9541 19.3237 51.2794V43.6787H60.8052V51.2794C60.6764 52.8253 59.3882 54.2423 57.7134 54.2423Z" fill="#A6C3EE"/>
<path d="M51.1431 42.3907H60.6761V38.6548H52.9466L51.1431 42.3907Z" fill="#A6C3EE"/>
<path d="M56.1675 4.12986H23.8325C26.1514 1.42455 29.1143 0.00746169 32.2061 0.00746169H47.9227C50.8857 -0.121363 53.9775 1.42455 56.1675 4.12986Z" fill="#A6C3EE"/>
<path d="M28.4702 38.6548L30.2737 42.3907H49.7263L51.5298 38.6548H28.4702Z" fill="#A6C3EE"/>
<path d="M27.0532 38.6548H19.3237V42.3907H28.8568L27.0532 38.6548Z" fill="#A6C3EE"/>
<path d="M19.3237 43.6787V51.2794C19.3237 52.9541 20.612 54.2423 22.2867 54.2423H57.7134C59.3882 54.2423 60.6764 52.9541 60.6764 51.2794V43.6787H19.3237Z" fill="#A6C3EE"/>
<path d="M20.3545 54.6289V58.3648C20.3545 58.8801 20.7409 59.3954 21.3851 59.3954H26.2804C26.7957 59.3954 27.311 59.009 27.311 58.3648V55.1442H22.2869C21.5139 55.1442 20.8698 54.8866 20.3545 54.6289Z" fill="#A6C3EE"/>
<path d="M52.6895 55.1442V58.3648C52.6895 58.8801 53.0759 59.3954 53.72 59.3954H58.6153C59.1306 59.3954 59.646 59.009 59.646 58.3648V54.6289C59.1307 55.0154 58.3577 55.1442 57.7136 55.1442H52.6895Z" fill="#A6C3EE"/>
<path d="M18.0356 48.4456V44.9673H14.4286H3.22083L1.15967 47.1573C0.7732 47.5438 0.515543 47.9302 0.386719 48.3167H7.2144H18.0356V48.4456Z" fill="#3265B1"/>
<path d="M0 51.9238V53.985C0 55.7885 1.5459 57.3344 3.34944 57.3344H7.21418V51.9238H0Z" fill="#3265B1"/>
<path d="M14.1707 37.3667H8.24482C7.98717 37.3667 7.72949 37.6244 7.72949 37.882V38.9126H14.1707V37.3667Z" fill="#3265B1"/>
<path d="M18.0356 37.3667H14.8149V38.9126H18.0356V37.3667Z" fill="#3265B1"/>
<path d="M0.515137 56.8193V58.494C0.515137 59.0093 0.901587 59.3958 1.41688 59.3958H3.86454C4.37984 59.3958 4.76633 59.0093 4.76633 58.494V58.1076H3.34925C2.31866 57.9788 1.28808 57.5923 0.515137 56.8193Z" fill="#3265B1"/>
<path d="M18.0355 49.2183H7.8584V51.1506H18.0355V49.2183Z" fill="#3265B1"/>
<path d="M14.557 39.6855H7.72929C7.21399 39.6855 6.82752 39.9431 6.44105 40.2008C5.28163 41.489 4.25106 43.4214 3.60693 44.3232H18.0352V39.5566H14.557V39.6855Z" fill="#3265B1"/>
<path d="M18.1644 51.9238H6.31258C6.18375 51.9238 6.4414 51.9238 6.31258 51.9238L7.34316 57.3344H19.195V53.7273C18.6797 53.3408 18.2932 52.6968 18.1644 51.9238Z" fill="#3265B1"/>
<path d="M61.9648 48.4456V44.9673H65.572H76.7797L78.8409 47.1573C79.2273 47.5438 79.485 47.9302 79.6138 48.3167H72.7861H61.9648V48.4456Z" fill="#3265B1"/>
<path d="M79.9998 51.9238V53.985C79.9998 55.7885 78.4539 57.3344 76.6504 57.3344H72.7856V51.9238H79.9998Z" fill="#3265B1"/>
<path d="M65.8296 37.3667H71.7555C72.0132 37.3667 72.2708 37.6244 72.2708 37.882V38.9126H65.8296V37.3667Z" fill="#3265B1"/>
<path d="M65.1855 37.3667H61.9648V38.9126H65.1855V37.3667Z" fill="#3265B1"/>
<path d="M79.4851 56.8193V58.494C79.4851 59.0093 79.0986 59.3958 78.5833 59.3958H76.1356C75.6203 59.3958 75.2339 59.0093 75.2339 58.494V58.1076H76.6509C77.6815 57.9788 78.7121 57.5923 79.4851 56.8193Z" fill="#3265B1"/>
<path d="M72.142 49.2183H61.9648V51.1506H72.142V49.2183Z" fill="#3265B1"/>
<path d="M65.5715 39.6855H72.3992C72.9145 39.6855 73.301 39.9431 73.6875 40.2008C74.8469 41.489 75.8775 43.4214 76.5216 44.3232H62.0933V39.5566H65.5715V39.6855Z" fill="#3265B1"/>
<path d="M61.8358 51.9238H72.7859C72.9147 51.9238 72.6571 51.9238 72.7859 51.9238V57.3344H60.9341V53.7273C61.3206 53.3408 61.707 52.6968 61.8358 51.9238Z" fill="#3265B1"/>
<path d="M58.7439 30.1526H21.1272C20.0966 30.1526 19.1948 29.2508 19.1948 28.2202V37.3667H28.3413H39.9355H51.5297H60.6763V28.2202C60.6763 29.2508 59.9033 30.1526 58.7439 30.1526Z" fill="#A6C3EE"/>
<path d="M56.9405 5.28955H23.0597C20.9985 5.28955 19.3237 6.96422 19.3237 9.02541V16.2396C19.3237 15.209 20.2255 14.3073 21.2561 14.3073H58.8729C59.9035 14.3073 60.8052 15.209 60.8052 16.2396V9.02541C60.6764 6.96422 59.0017 5.28955 56.9405 5.28955Z" fill="#A6C3EE"/>
<path d="M58.7439 14.436H21.1272C20.0966 14.436 19.1948 15.3378 19.1948 16.3684V27.9626V28.2203C19.1948 29.2509 20.0966 30.1526 21.1272 30.1526H58.7439C59.7745 30.1526 60.6763 29.2509 60.6763 28.2203V27.9626V16.3684C60.6763 15.3378 59.9033 14.436 58.7439 14.436Z" fill="#3265B1"/>
</svg>
