<svg width="80" height="60" viewBox="0 0 80 60" fill="none" xmlns="http://www.w3.org/2000/svg">
<path d="M40.0002 59.5123C23.6588 59.5123 10.2441 46.2195 10.2441 29.7561C10.2441 13.2927 23.5368 0 40.0002 0C56.4636 0 69.7563 13.2927 69.7563 29.7561C69.7563 46.2195 56.3417 59.5123 40.0002 59.5123ZM40.0002 2.68294C25.1222 2.68294 12.9271 14.8781 12.9271 29.7561C12.9271 44.6342 25.1222 56.8293 40.0002 56.8293C54.8783 56.8293 67.0734 44.6342 67.0734 29.7561C67.0734 14.8781 54.8783 2.68294 40.0002 2.68294Z" fill="#3265B1"/>
<path d="M11.5857 39.9996C17.2433 39.9996 21.8296 35.4132 21.8296 29.7557C21.8296 24.0981 17.2433 19.5117 11.5857 19.5117C5.92815 19.5117 1.3418 24.0981 1.3418 29.7557C1.3418 35.4132 5.92815 39.9996 11.5857 39.9996Z" fill="white"/>
<path d="M11.5854 20.8534C16.4634 20.8534 20.4878 24.8777 20.4878 29.7558C20.4878 34.6338 16.4634 38.6582 11.5854 38.6582C6.70732 38.6582 2.68292 34.6338 2.68292 29.7558C2.68292 24.8777 6.70732 20.8534 11.5854 20.8534ZM11.5854 18.1704C5.2439 18.1704 0 23.4143 0 29.7558C0 36.0972 5.2439 41.3411 11.5854 41.3411C17.9268 41.3411 23.1707 36.0972 23.1707 29.7558C23.1707 23.4143 18.0488 18.1704 11.5854 18.1704Z" fill="#3265B1"/>
<path d="M68.4145 18.1704C62.073 18.1704 56.8291 23.4143 56.8291 29.7558C56.8291 36.0972 62.073 41.3411 68.4145 41.3411C74.7559 41.3411 79.9998 36.0972 79.9998 29.7558C79.9998 23.4143 74.7559 18.1704 68.4145 18.1704Z" fill="#3265B1"/>
<path d="M53.6589 11.9512H31.2199C30.7321 11.9512 30.3662 12.317 30.3662 12.8048V14.878H49.5125C50.6101 14.878 51.5857 15.8536 51.5857 16.9511V43.7804H53.6589C54.1467 43.7804 54.5125 43.4145 54.5125 42.9267V12.8048C54.5125 12.4389 54.1467 11.9512 53.6589 11.9512Z" fill="#A6C3EE"/>
<path d="M49.5124 16.2197H30.3661H27.0734C26.5856 16.2197 26.2197 16.5855 26.2197 17.0733V47.1953C26.2197 47.6831 26.5856 48.049 27.0734 48.049H49.5124C50.0002 48.049 50.3661 47.6831 50.3661 47.1953V43.9026V17.0733C50.3661 16.5855 50.0002 16.2197 49.5124 16.2197Z" fill="#A6C3EE"/>
<path d="M47.0731 30H29.3902C29.1462 30 28.9023 29.7561 28.9023 29.5122C28.9023 29.2683 29.1462 29.0244 29.3902 29.0244H47.0731C47.317 29.0244 47.5609 29.2683 47.5609 29.5122C47.5609 29.7561 47.317 30 47.0731 30Z" fill="white"/>
<path d="M47.0731 33.4146H29.3902C29.1462 33.4146 28.9023 33.1706 28.9023 32.9267C28.9023 32.6828 29.1462 32.439 29.3902 32.439H47.0731C47.317 32.439 47.5609 32.6828 47.5609 32.9267C47.5609 33.1706 47.317 33.4146 47.0731 33.4146Z" fill="white"/>
<path d="M38.2927 21.5855H29.5122C29.2683 21.5855 29.0244 21.3416 29.0244 21.0977C29.0244 20.8538 29.2683 20.6099 29.5122 20.6099H38.2927C38.5366 20.6099 38.7805 20.8538 38.7805 21.0977C38.7805 21.3416 38.5366 21.5855 38.2927 21.5855Z" fill="white"/>
<path d="M38.2927 24.8779H29.5122C29.2683 24.8779 29.0244 24.634 29.0244 24.3901C29.0244 24.1462 29.2683 23.9023 29.5122 23.9023H38.2927C38.5366 23.9023 38.7805 24.1462 38.7805 24.3901C38.7805 24.634 38.5366 24.8779 38.2927 24.8779Z" fill="white"/>
<path d="M47.0731 36.7075H29.3902C29.1462 36.7075 28.9023 36.4636 28.9023 36.2197C28.9023 35.9758 29.1462 35.7319 29.3902 35.7319H47.0731C47.317 35.7319 47.5609 35.9758 47.5609 36.2197C47.5609 36.4636 47.317 36.7075 47.0731 36.7075Z" fill="white"/>
<path d="M47.0731 40.1221H29.3902C29.1462 40.1221 28.9023 39.8781 28.9023 39.6342C28.9023 39.3903 29.1462 39.1465 29.3902 39.1465H47.0731C47.317 39.1465 47.5609 39.3903 47.5609 39.6342C47.5609 39.8781 47.317 40.1221 47.0731 40.1221Z" fill="white"/>
<path d="M47.0731 43.5366H29.3902C29.1462 43.5366 28.9023 43.2928 28.9023 43.0489C28.9023 42.805 29.1462 42.561 29.3902 42.561H47.0731C47.317 42.561 47.5609 42.805 47.5609 43.0489C47.5609 43.2928 47.317 43.5366 47.0731 43.5366Z" fill="white"/>
<path d="M67.4391 35.9757L62.0732 30.6099L63.7806 28.9025L67.4391 32.561L72.9269 27.0732L74.7562 28.7806L67.4391 35.9757Z" fill="white"/>
<path d="M14.3216 25.2888L7.07812 32.5322L8.80276 34.2569L16.0462 27.0134L14.3216 25.2888Z" fill="#3265B1"/>
<path d="M7.10419 27.0685L14.3477 34.312L16.0723 32.5874L8.82883 25.3439L7.10419 27.0685Z" fill="#3265B1"/>
</svg>
