<svg width="40" height="40" viewBox="0 0 40 40" fill="none" xmlns="http://www.w3.org/2000/svg">
<path d="M20.0645 27.5484C24.2333 27.5484 27.6128 24.1689 27.6128 20C27.6128 15.8312 24.2333 12.4517 20.0645 12.4517C15.8956 12.4517 12.5161 15.8312 12.5161 20C12.5161 24.1689 15.8956 27.5484 20.0645 27.5484Z" fill="#3265B1"/>
<path d="M20.7095 19.5482H19.4192C19.0321 19.5482 18.7095 19.2257 18.7095 18.8386C18.7095 18.4515 19.0321 18.1289 19.4192 18.1289H21.4192H21.9353V17.1611H21.3547H19.3547C18.4514 17.1611 17.6772 17.9353 17.6772 18.8386C17.6772 19.7418 18.4514 20.516 19.3547 20.516H20.645C21.0321 20.516 21.3547 20.8386 21.3547 21.2257C21.3547 21.6128 21.0321 21.9353 20.645 21.9353H18.645H18.1289V22.9031H18.645H20.645C21.5482 22.9031 22.3224 22.1289 22.3224 21.2257C22.3869 20.2579 21.6127 19.5482 20.7095 19.5482Z" fill="white"/>
<path d="M19.5483 23.8062V24.3224H20.5161V23.8062V23.2256H19.5483V23.8062Z" fill="white"/>
<path d="M20.5161 16.1933V15.7417H19.5483V16.1933V16.7739H20.5161V16.1933Z" fill="white"/>
<path d="M6.51604 19.0325C6.77411 15.2905 8.58055 11.9357 11.3547 9.61315L11.6773 5.35508L7.67733 4.2583C3.29025 7.74216 0.387033 13.0325 0.0644531 18.968L3.29025 16.3228L6.51604 19.0325Z" fill="#3265B1"/>
<path d="M13.0968 8.38707C15.1613 7.16126 17.4839 6.45159 20.0646 6.45159C25.6129 6.45159 30.4516 9.80642 32.5161 14.6451L36.5161 16.1935L38.7096 12.6451C35.6774 5.22577 28.4516 0 20.0646 0C16.1291 0 12.5162 1.09676 9.41943 3.09676L13.4194 4.19353L13.0968 8.38707Z" fill="#A6C3EE"/>
<path d="M37.0966 18.1935L33.0966 16.6451C33.3547 17.7419 33.5483 18.8386 33.5483 19.9999C33.5483 27.4838 27.4838 33.5483 19.9999 33.5483C12.9032 33.5483 7.03223 28.0644 6.5161 21.0967L3.22579 18.387L0 21.0322C0.516127 31.6128 9.29029 39.9998 19.9999 39.9998C31.0321 39.9998 39.9999 31.0321 39.9999 19.9999C39.9999 18.129 39.7418 16.3225 39.2902 14.5806L37.0966 18.1935Z" fill="#A6C3EE"/>
<path d="M7.25503 11.3644C7.6757 10.7456 7.51509 9.9029 6.89628 9.48223C6.27748 9.06156 5.4348 9.22217 5.01413 9.84098C4.59346 10.4598 4.7541 11.3025 5.37291 11.7231C5.99171 12.1438 6.83436 11.9832 7.25503 11.3644Z" fill="white"/>
<path d="M25.0094 37.4936C25.7288 37.2878 26.1451 36.5377 25.9392 35.8183C25.7334 35.099 24.9833 34.6827 24.264 34.8885C23.5446 35.0944 23.1283 35.8444 23.3341 36.5638C23.54 37.2831 24.29 37.6994 25.0094 37.4936Z" fill="white"/>
<path d="M20.0643 38.1936C20.8126 38.1936 21.4191 37.587 21.4191 36.8387C21.4191 36.0905 20.8126 35.4839 20.0643 35.4839C19.3161 35.4839 18.7095 36.0905 18.7095 36.8387C18.7095 37.587 19.3161 38.1936 20.0643 38.1936Z" fill="white"/>
<path d="M16.7434 36.5279C16.9493 35.8085 16.5329 35.0584 15.8136 34.8526C15.0942 34.6467 14.3442 35.063 14.1383 35.7824C13.9325 36.5018 14.3488 37.2518 15.0681 37.4577C15.7875 37.6635 16.5376 37.2472 16.7434 36.5279Z" fill="white"/>
<path d="M25.7005 4.14534C25.8948 3.42275 25.4666 2.67945 24.744 2.48513C24.0214 2.29081 23.2781 2.71905 23.0838 3.44164C22.8895 4.16423 23.3177 4.90753 24.0403 5.10186C24.7629 5.29618 25.5062 4.86793 25.7005 4.14534Z" fill="white"/>
<path d="M29.8034 6.30641C30.1891 5.66523 29.9819 4.83283 29.3407 4.44718C28.6996 4.06153 27.8671 4.26867 27.4815 4.90984C27.0958 5.55102 27.303 6.38344 27.9442 6.76909C28.5854 7.15474 29.4178 6.94759 29.8034 6.30641Z" fill="white"/>
</svg>
