<svg width="44" height="40" viewBox="0 0 44 40" fill="none" xmlns="http://www.w3.org/2000/svg">
<path d="M18.1561 35.1064H13.4043V40H18.1561V35.1064Z" fill="#3265B1"/>
<path d="M24.1136 32.9785H19.3618V39.9998H24.1136V32.9785Z" fill="#3265B1"/>
<path d="M30.1419 30.8511H25.3901V40H30.1419V30.8511Z" fill="#3265B1"/>
<path d="M43.3334 35.461H41.0639C39.6454 35.461 38.3688 34.6099 37.8724 33.3333V33.2624C37.3759 31.9858 37.6596 30.4965 38.6525 29.5745L40.2837 27.9432C39.4327 26.6666 38.5107 25.5319 37.4468 24.3971C36.383 23.3333 35.1773 22.4113 33.9007 21.5603L32.3405 23.1206C31.3475 24.1135 29.8582 24.3972 28.5816 23.9007C28.5816 23.9007 28.5816 23.9007 28.5107 23.9007C27.2341 23.4043 26.383 22.1277 26.383 20.7092V18.5106C24.9646 18.2269 23.4043 18.0142 21.9149 18.0142C20.4255 18.0142 18.8653 18.156 17.4468 18.5106V20.7092C17.4468 22.1277 16.5958 23.4043 15.3192 23.9007C15.3192 23.9007 15.3192 23.9007 15.2482 23.9007C13.9716 24.3972 12.4823 24.1135 11.4894 23.1206L9.92908 21.5603C8.65249 22.4113 7.51774 23.3333 6.38298 24.3971C5.31915 25.461 4.39717 26.6666 3.5461 27.9432L5.17731 29.5745C6.17022 30.5674 6.4539 31.9858 5.95745 33.2624V33.3333C5.46099 34.6099 4.1844 35.461 2.76595 35.461H0.496452C0.212764 36.8794 0 38.4397 0 39.9291H8.72341C8.72341 32.6241 14.6809 26.6667 21.9858 26.6667C29.2908 26.6667 35.2482 32.6241 35.2482 39.9291H43.9717C43.7589 38.4397 43.6171 36.8794 43.3334 35.461Z" fill="#A6C3EE"/>
<path d="M21.773 9.21986C24.319 9.21986 26.383 7.15593 26.383 4.60993C26.383 2.06394 24.319 0 21.773 0C19.227 0 17.1631 2.06394 17.1631 4.60993C17.1631 7.15593 19.227 9.21986 21.773 9.21986Z" fill="#3265B1"/>
<path d="M14.7516 22.908C15.7445 22.5534 16.3118 21.6314 16.3118 20.6385V18.44V17.5889L17.092 17.447C18.6523 17.0924 20.2125 16.9506 21.7728 16.9506C23.3331 16.9506 24.9643 17.0924 26.4537 17.447L27.2338 17.5889V18.369V20.5676C27.2338 21.5605 27.8012 22.4825 28.7941 22.8371H28.865C29.1487 22.979 29.5033 23.0499 29.787 23.0499C30.3544 23.0499 30.8509 22.8371 31.2764 22.5534V17.8726V16.5251C31.2764 13.1917 28.5813 10.4258 25.1771 10.4258L23.404 16.8797L22.9785 12.7662H21.7019H20.4253L19.9998 16.8797L18.2267 10.4258C14.8934 10.4258 12.1274 13.1208 12.1274 16.5251V17.8726V22.5534C12.553 22.908 13.0494 23.0499 13.6168 23.0499C14.1133 23.1208 14.3969 23.0499 14.7516 22.908Z" fill="#3265B1"/>
<path d="M20.78 10.4966L20.6382 12.1278H21.7729H22.9786L22.8368 10.4966H21.7729H20.78Z" fill="#3265B1"/>
</svg>
