<svg width="40" height="40" viewBox="0 0 40 40" fill="none" xmlns="http://www.w3.org/2000/svg">
<path d="M20.6584 24.9078C20.4623 24.9732 20.2661 25.104 20.07 25.104C19.8739 25.1694 19.6777 25.1693 19.4816 25.1693C19.2855 25.1693 19.1548 25.1693 18.9586 25.1693C18.2395 25.104 17.5204 24.7771 16.9974 24.2541L16.4744 23.7311C16.409 23.6657 16.409 23.6003 16.409 23.535C16.409 23.4696 16.409 23.4042 16.4744 23.3389L19.547 20.2662C18.2395 19.1549 16.2129 19.2202 14.9708 20.4624L13.0095 22.4236C12.9442 22.489 12.8134 22.5544 12.6827 22.489L0 18.1089V27.9151L11.5059 31.9029L13.1403 30.2685C13.7287 29.6802 14.6439 29.484 15.4938 29.8109C15.7553 29.9417 16.0168 30.0724 16.2129 30.2685C16.7359 30.7915 16.932 31.5107 16.8013 32.2298C16.8013 32.2298 16.8666 32.2298 16.8666 32.2952C16.8666 32.2952 16.8666 32.3605 16.932 32.3605C17.5858 32.2298 18.3703 32.4259 18.8933 32.9489C19.2855 33.3412 19.547 33.8642 19.547 34.4525C19.547 34.6487 19.547 34.7794 19.4816 34.9755C20.2007 34.7794 20.9852 34.9755 21.5082 35.4985C22.0966 36.0869 22.2274 36.8714 22.0313 37.5905C22.162 37.7213 22.3581 37.852 22.5542 37.9174C23.1426 38.1789 23.7964 38.0481 24.1886 37.5905C24.5809 37.1983 24.7116 36.5445 24.5809 36.0215V35.9561C24.5155 35.76 24.3847 35.5639 24.254 35.4332L22.2927 33.4719C22.162 33.3412 22.162 33.145 22.2927 33.0143C22.4235 32.8835 22.6196 32.8835 22.7504 33.0143L24.7116 34.9755C24.8423 35.1063 25.0385 35.237 25.2346 35.3024C25.3654 35.3678 25.4307 35.3678 25.5615 35.3678C26.0845 35.4331 26.5421 35.3024 26.869 34.9102C27.3266 34.4525 27.4573 33.7988 27.1958 33.2758C27.1305 33.0797 26.9997 32.9489 26.869 32.7528L24.9077 30.7915C24.777 30.6608 24.777 30.4647 24.9077 30.3339C25.0385 30.2032 25.2346 30.2032 25.3653 30.3339L27.3266 32.2952C27.4573 32.4259 27.6535 32.5567 27.8496 32.6221C27.9803 32.6874 28.0457 32.6874 28.1765 32.6874C28.6341 32.7528 29.1571 32.622 29.484 32.2298C29.6801 32.0337 29.8108 31.7722 29.8762 31.5107C29.9416 31.3799 29.9416 31.1838 29.9416 31.0531C29.9416 30.9877 29.9416 30.9223 29.8762 30.7915C29.8108 30.6608 29.8108 30.6608 29.8108 30.5954C29.7455 30.3993 29.6147 30.2686 29.484 30.0724L22.685 23.2735L21.7044 24.2541C21.3775 24.5156 21.0506 24.7771 20.6584 24.9078Z" fill="#A6C3EE"/>
<path d="M31.7069 16.0823C34.6488 16.0823 37.0676 13.6634 37.0676 10.7216C37.0676 7.77971 34.6488 5.36084 31.7069 5.36084C28.7651 5.36084 26.3462 7.77971 26.3462 10.7216C26.3462 13.6634 28.7651 16.0823 31.7069 16.0823ZM32.1645 14.2518V14.7094H31.2493V14.2518V13.7288H32.1645V14.2518ZM31.2493 7.25668V6.79909H32.1645V7.25668V7.77971H31.2493V7.25668ZM31.1186 8.10658H32.949H33.4067V9.0218H32.949H31.1186C30.7917 9.0218 30.4648 9.2833 30.4648 9.67555C30.4648 10.0024 30.7263 10.3293 31.1186 10.3293H32.2953C33.1452 10.3293 33.8643 11.0484 33.8643 11.8983C33.8643 12.7482 33.1452 13.4673 32.2953 13.4673H30.4648H30.0072V12.552H30.4648H32.2953C32.6222 12.552 32.949 12.2905 32.949 11.8983C32.949 11.5714 32.6875 11.2446 32.2953 11.2446H31.1186C30.2687 11.2446 29.5496 10.5254 29.5496 9.67555C29.5496 8.82568 30.2687 8.10658 31.1186 8.10658Z" fill="#A6C3EE"/>
<path d="M21.0508 35.8253C20.7893 35.5638 20.3971 35.3677 20.0048 35.3677C19.9395 35.3677 19.8741 35.3677 19.8087 35.3677C19.678 35.3677 19.6126 35.4331 19.4818 35.4331C19.4818 35.4331 19.4818 35.4331 19.4165 35.4331C19.2857 35.4984 19.2203 35.4985 19.0896 35.5638C19.0242 35.6292 18.8935 35.6946 18.8281 35.7599L17.1937 37.3943C16.6053 37.9827 16.6053 38.9633 17.1937 39.5517C17.7167 40.0747 18.5666 40.14 19.155 39.7478C19.2203 39.6824 19.2857 39.617 19.3511 39.5517L20.9855 37.9173C21.1162 37.7866 21.1816 37.6558 21.247 37.5904C21.3123 37.4597 21.3123 37.3943 21.3777 37.2636C21.4431 37.1328 21.4431 37.0021 21.4431 36.8713C21.5084 36.5445 21.3777 36.1522 21.0508 35.8253Z" fill="#3265B1"/>
<path d="M18.4356 33.2106C18.1087 32.8837 17.7165 32.7529 17.3242 32.7529C17.1935 32.7529 17.1281 32.7529 16.9974 32.7529C16.8666 32.7529 16.8012 32.8183 16.6705 32.8837C16.6051 32.9491 16.4744 33.0144 16.409 33.0144C16.3436 33.0798 16.2782 33.0798 16.2129 33.1452L14.5785 34.7796C13.9901 35.3679 13.9901 36.3485 14.5785 36.9369C15.1669 37.5253 16.1475 37.5253 16.7359 36.9369L18.3702 35.3026C18.4356 35.2372 18.501 35.1718 18.5663 35.1064C18.6317 35.0411 18.6971 34.9103 18.6971 34.8449C18.7625 34.7142 18.7625 34.6488 18.7625 34.5181C18.7625 34.4527 18.7625 34.322 18.7625 34.2566C18.8932 33.9297 18.6971 33.5374 18.4356 33.2106Z" fill="#3265B1"/>
<path d="M15.8205 30.6608C15.6898 30.53 15.4937 30.3993 15.2975 30.3339C15.1014 30.2685 14.9053 30.2031 14.7092 30.2031C14.3169 30.2031 13.9247 30.3339 13.5978 30.6608L12.421 31.8375L12.0942 32.1644L11.9634 32.2951C11.898 32.3605 11.7673 32.4912 11.7019 32.622C11.6365 32.7527 11.5712 32.8835 11.5058 33.0796C11.5058 33.2103 11.4404 33.3411 11.4404 33.4719C11.4404 33.8641 11.6366 34.2563 11.8981 34.5178C12.1596 34.7793 12.5518 34.9755 13.0094 34.9755C13.4017 34.9755 13.7939 34.8447 14.1208 34.5178L14.7745 33.8641L15.7552 32.8835C15.8205 32.8181 15.8859 32.7527 15.8859 32.6874C15.9513 32.622 16.0167 32.4912 16.0167 32.4258C16.082 32.2951 16.082 32.2297 16.1474 32.099C16.3435 31.5106 16.2128 30.9876 15.8205 30.6608Z" fill="#3265B1"/>
<path d="M17.5855 23.0773L17.1279 23.535L17.3894 23.7965C17.7817 24.1887 18.37 24.4502 18.9584 24.5156C19.0892 24.5156 19.2199 24.5156 19.3507 24.5156C19.5468 24.5156 19.6775 24.5156 19.8737 24.4502C20.3313 24.3195 20.7889 24.1233 21.1158 23.7311L22.2925 22.5544C22.2925 22.5544 22.2925 22.5544 22.3579 22.489C22.3579 22.489 22.3579 22.489 22.4233 22.489H22.4886C22.554 22.489 22.6194 22.5543 22.6848 22.6197L23.3385 23.2735L24.4499 24.3848L27.0649 26.9998L29.1569 29.0918L29.6798 29.6148C29.876 29.8109 30.0721 30.0724 30.1375 30.3339C30.2028 30.4647 30.2028 30.5954 30.2682 30.7262C30.2682 30.7916 30.2682 30.7916 30.2682 30.8569C30.2682 30.9223 30.2682 31.053 30.2682 31.1184V31.1838L39.7475 27.9151V18.1089L27.0649 22.489C26.9341 22.5544 26.8034 22.489 26.738 22.4236L24.7767 20.4624C24.5806 20.2662 24.2538 20.0048 23.9269 19.874C22.6194 19.2203 21.0504 19.4164 20.0044 20.4624L17.4548 23.012C17.6509 23.0774 17.5855 23.0773 17.5855 23.0773Z" fill="#3265B1"/>
<path d="M5.88356 14.1207L5.81819 14.0553C5.81819 14.0553 5.75282 13.9246 5.62207 13.6631V15.3628C5.62207 15.7551 5.94895 16.0819 6.3412 16.0819H8.23705C8.6293 16.0819 8.95618 15.7551 8.95618 15.3628V14.6437C7.38719 14.513 6.34119 14.3822 5.88356 14.1207Z" fill="#3265B1"/>
<path d="M24.1888 14.1207C23.6658 14.3168 22.6852 14.513 21.1162 14.6437V15.3628C21.1162 15.7551 21.4431 16.0819 21.8353 16.0819H23.7312C24.1234 16.0819 24.4503 15.7551 24.4503 15.3628V13.6631C24.3849 13.9246 24.2542 13.9899 24.2542 14.0553L24.1888 14.1207Z" fill="#3265B1"/>
<path d="M22.6196 4.51086L21.3121 1.30749C21.0506 0.719121 20.5929 0.326889 19.9392 0.261514C19.0893 0.130765 17.6511 0 15.0361 0C12.4211 0 10.9175 0.130765 10.133 0.261514C9.54463 0.326889 9.02163 0.784495 8.76013 1.30749L7.45264 4.51086C8.10638 4.44549 11.2444 4.05323 15.0361 4.05323C18.8278 3.98786 21.9658 4.38011 22.6196 4.51086Z" fill="#3265B1"/>
<path d="M23.9925 7.45264V7.77951C23.9925 8.17176 23.731 8.564 23.3388 8.62937C22.7504 8.76012 21.5736 8.89087 19.4816 8.95624H19.2855C18.0434 9.02162 16.6052 9.0216 15.1016 9.0216C13.5326 9.0216 12.1597 9.02162 10.9176 8.95624H10.7215C8.56409 8.89087 7.45273 8.69475 6.86436 8.62937C6.47211 8.564 6.21061 8.23713 6.21061 7.77951V7.45264C5.88374 7.91026 5.81836 8.43326 5.81836 8.43326V9.54459C5.81836 9.54459 5.88374 9.54459 5.94912 9.54459H6.0145C6.07987 9.54459 6.14524 9.54462 6.27599 9.60999H6.34137C6.40674 9.60999 6.47211 9.60998 6.53748 9.67535C6.60286 9.67535 6.60287 9.67535 6.66824 9.67535C6.73362 9.67535 6.79898 9.67537 6.86436 9.74075C6.92973 9.74075 6.92974 9.74075 6.99511 9.74075C7.06049 9.74075 7.12586 9.74073 7.25661 9.80611C7.32198 9.80611 7.38735 9.80611 7.45272 9.80611C7.5181 9.80611 7.64884 9.80611 7.71422 9.80611C7.77959 9.80611 7.84498 9.80611 7.91035 9.80611C7.97573 9.80611 8.10648 9.80611 8.23723 9.80611C8.3026 9.80611 8.36797 9.80611 8.49872 9.80611C8.62947 9.80611 8.69485 9.80611 8.8256 9.80611C8.89097 9.80611 9.02172 9.80611 9.08709 9.80611C9.21784 9.80611 9.34859 9.80611 9.47934 9.80611C9.54472 9.80611 9.67546 9.80611 9.74084 9.80611C9.87159 9.80611 10.0023 9.80611 10.1331 9.80611C10.2638 9.80611 10.3292 9.80611 10.46 9.80611C10.5907 9.80611 10.7215 9.80611 10.9176 9.80611C11.0483 9.80611 11.1137 9.80611 11.2445 9.80611C11.3752 9.80611 11.5713 9.80611 11.7675 9.80611C11.8982 9.80611 12.029 9.80611 12.0943 9.80611C12.2905 9.80611 12.4866 9.80611 12.6827 9.80611C12.8134 9.80611 12.9442 9.80611 13.0749 9.80611C13.2711 9.80611 13.5326 9.80611 13.7287 9.80611C13.8594 9.80611 13.9902 9.80611 14.1209 9.80611C14.4478 9.80611 14.8401 9.80611 15.2323 9.80611C15.6245 9.80611 15.9514 9.80611 16.3437 9.80611C16.4744 9.80611 16.6052 9.80611 16.7359 9.80611C16.9321 9.80611 17.1936 9.80611 17.3897 9.80611C17.5204 9.80611 17.6512 9.80611 17.7819 9.80611C17.978 9.80611 18.1742 9.80611 18.3703 9.80611C18.501 9.80611 18.6318 9.80611 18.7625 9.80611C18.9587 9.80611 19.0894 9.80611 19.2855 9.80611C19.4163 9.80611 19.547 9.80611 19.6124 9.80611C19.7432 9.80611 19.9393 9.80611 20.07 9.80611C20.2008 9.80611 20.2662 9.80611 20.3969 9.80611C20.5277 9.80611 20.6584 9.80611 20.7891 9.80611C20.9199 9.80611 20.9853 9.80611 21.0507 9.80611C21.1814 9.80611 21.3121 9.80611 21.4429 9.80611C21.5083 9.80611 21.639 9.80611 21.7044 9.80611C21.8352 9.80611 21.9005 9.80611 22.0313 9.80611C22.0966 9.80611 22.162 9.80611 22.2928 9.80611C22.4235 9.80611 22.4889 9.80611 22.6196 9.80611C22.685 9.80611 22.7504 9.80611 22.8158 9.80611C22.8811 9.80611 23.0119 9.80611 23.0773 9.80611C23.1426 9.80611 23.208 9.80611 23.2734 9.80611C23.3388 9.80611 23.4695 9.80612 23.5349 9.74075C23.6003 9.74075 23.6656 9.74075 23.6656 9.74075C23.731 9.74075 23.7964 9.74072 23.8618 9.67535C23.9271 9.67535 23.9271 9.67535 23.9925 9.67535C24.0579 9.67535 24.1233 9.67537 24.1886 9.60999H24.254C24.3194 9.60999 24.4501 9.54459 24.5155 9.54459C24.5809 9.54459 24.5809 9.54459 24.5809 9.54459C24.6463 9.54459 24.6462 9.54459 24.7116 9.54459V8.43326C24.3847 8.43326 24.3194 7.91026 23.9925 7.45264Z" fill="#3265B1"/>
<path d="M24.0576 10.1331C23.9923 10.1331 23.9923 10.1331 23.9269 10.1331C23.8615 10.1331 23.7962 10.1331 23.7308 10.1331C23.6654 10.1331 23.6654 10.1331 23.6 10.1331C23.5347 10.1331 23.4693 10.1331 23.4039 10.1331C23.3385 10.1331 23.3385 10.1331 23.2732 10.1331C23.2078 10.1331 23.1424 10.133 23.0117 10.1984C22.9463 10.1984 22.8809 10.1984 22.8809 10.1984C22.7502 10.1984 22.6848 10.1984 22.554 10.2638C22.4887 10.2638 22.4887 10.2638 22.4233 10.2638C22.2925 10.2638 22.0964 10.3292 21.9003 10.3292C21.8349 10.3292 21.8349 10.3292 21.7695 10.3292C21.6388 10.3292 21.508 10.3292 21.3119 10.3946C21.2466 10.3946 21.1812 10.3946 21.1158 10.3946C20.985 10.3946 20.8543 10.3946 20.7236 10.3946C20.6582 10.3946 20.5274 10.3946 20.462 10.3946C20.3313 10.3946 20.2006 10.3946 20.0698 10.3946C19.9391 10.3946 19.8737 10.3946 19.7429 10.3946C19.6122 10.3946 19.4161 10.3946 19.2853 10.3946C19.1546 10.3946 19.0892 10.3946 18.9584 10.3946C18.7623 10.3946 18.6316 10.3946 18.4354 10.3946C18.3047 10.3946 18.1739 10.3946 18.0432 10.3946C17.8471 10.3946 17.651 10.3946 17.4548 10.3946C17.3241 10.3946 17.1933 10.3946 17.0626 10.3946C16.8665 10.3946 16.605 10.3946 16.4088 10.3946C16.2781 10.3946 16.2127 10.3946 16.082 10.3946C15.7551 10.3946 15.3628 10.3946 14.9706 10.3946C14.5783 10.3946 14.2515 10.3946 13.8592 10.3946C13.7285 10.3946 13.6631 10.3946 13.5324 10.3946C13.2709 10.3946 13.0747 10.3946 12.8786 10.3946C12.7479 10.3946 12.6171 10.3946 12.4864 10.3946C12.2902 10.3946 12.0941 10.3946 11.898 10.3946C11.7672 10.3946 11.6365 10.3946 11.5057 10.3946C11.3096 10.3946 11.1788 10.3946 10.9827 10.3946C10.852 10.3946 10.7212 10.3946 10.6559 10.3946C10.5251 10.3946 10.329 10.3946 10.1982 10.3946C10.0675 10.3946 10.0021 10.3946 9.87137 10.3946C9.74062 10.3946 9.60987 10.3946 9.47912 10.3946C9.41374 10.3946 9.283 10.3946 9.21762 10.3946C9.08687 10.3946 8.95612 10.3946 8.82537 10.3946C8.76 10.3946 8.69463 10.3946 8.62926 10.3946C8.49851 10.3946 8.36775 10.3945 8.17163 10.3292C8.10625 10.3292 8.10624 10.3292 8.04087 10.3292C7.84474 10.3292 7.714 10.2638 7.51788 10.2638C7.4525 10.2638 7.4525 10.2638 7.38712 10.2638C7.25637 10.2638 7.191 10.2638 7.06025 10.1984C6.99487 10.1984 6.92951 10.1984 6.92951 10.1984C6.86414 10.1984 6.73339 10.1984 6.66802 10.1331C6.60264 10.1331 6.53726 10.1331 6.53726 10.1331C6.47189 10.1331 6.40652 10.1331 6.34114 10.1331C6.27577 10.1331 6.27576 10.1331 6.21039 10.1331C6.14501 10.1331 6.07965 10.1331 6.01427 10.1331C5.9489 10.1331 5.94889 10.1331 5.88351 10.1331C5.81814 10.1331 5.81813 10.1331 5.75276 10.1331C5.68738 10.1331 5.68739 10.1331 5.62202 10.1331C5.62202 10.1331 5.62202 10.1331 5.55664 10.1331V11.2444C5.55664 11.8328 5.62202 12.2904 5.6874 12.748C5.81815 13.3364 5.9489 13.6633 6.01427 13.794C6.47189 13.9901 7.4525 14.1209 8.82537 14.2517C11.5057 14.4478 14.8398 14.4478 14.9052 14.4478C14.9706 14.4478 18.3047 14.4478 20.9851 14.2517C22.3579 14.1209 23.3385 13.9901 23.7962 13.794C23.8615 13.6633 23.9923 13.4018 24.123 12.748C24.1884 12.2904 24.2538 11.8328 24.2538 11.2444V10.1331C24.2538 10.1331 24.2538 10.1331 24.1884 10.1331C24.1884 10.1331 24.123 10.1331 24.0576 10.1331C24.123 10.1331 24.1884 10.0677 24.0576 10.1331Z" fill="#3265B1"/>
<path d="M15.0363 6.79885C16.8015 6.79885 18.3705 6.79883 19.6779 6.73346C22.0314 6.60271 23.0774 6.47197 23.4697 6.34122C23.4043 6.01435 23.1428 5.29521 22.6198 4.96833C22.1622 4.90296 18.9588 4.51074 15.0363 4.51074C11.1139 4.51074 7.84514 4.90296 7.45289 4.96833C6.99527 5.22983 6.73378 5.94898 6.60303 6.34122C6.99528 6.4066 7.97589 6.60271 10.3947 6.73346C10.5255 6.73346 10.5909 6.73346 10.7216 6.73346C12.0945 6.79883 14.971 6.79885 15.0363 6.79885Z" fill="#3265B1"/>
<path d="M18.9588 7.25676C18.828 7.25676 18.6319 7.25676 18.5011 7.25676C18.305 7.25676 18.1089 7.25676 17.8474 7.25676C17.7166 7.25676 17.5205 7.25676 17.3898 7.25676C17.1283 7.25676 16.8668 7.25676 16.6053 7.25676C16.4745 7.25676 16.3438 7.25676 16.213 7.25676C15.8208 7.25676 15.4285 7.25676 14.9709 7.25676C13.3365 7.25676 11.8983 7.25678 10.6562 7.19141C10.6562 7.19141 10.6562 7.19141 10.5908 7.19141L10.9177 8.43354C11.0484 8.43354 11.2446 8.43354 11.3753 8.43354C11.5061 8.43354 11.6368 8.43354 11.7676 8.43354C11.9637 8.43354 12.1598 8.43354 12.3559 8.43354C12.4867 8.43354 12.6174 8.43354 12.7482 8.43354C12.9443 8.43354 13.2058 8.43354 13.4673 8.43354C13.598 8.43354 13.7288 8.43354 13.8596 8.43354C14.2518 8.43354 14.5787 8.43354 14.9709 8.43354C15.3632 8.43354 15.69 8.43354 16.0823 8.43354C16.213 8.43354 16.3438 8.43354 16.4745 8.43354C16.736 8.43354 16.9321 8.43354 17.1936 8.43354C17.3244 8.43354 17.4551 8.43354 17.5859 8.43354C17.782 8.43354 17.9781 8.43354 18.1743 8.43354C18.305 8.43354 18.4358 8.43354 18.5665 8.43354C18.6973 8.43354 18.8934 8.43354 19.0241 8.43354L19.351 7.19141C19.2856 7.25678 19.0895 7.25676 18.9588 7.25676Z" fill="#3265B1"/>
</svg>
