<svg width="48" height="44" viewBox="0 0 48 44" fill="none" xmlns="http://www.w3.org/2000/svg">
<path d="M36.3752 2.84326C35.5998 2.84326 34.8243 2.97253 34.0489 3.23101C34.1781 3.68336 34.2428 4.13567 34.2428 4.65263C34.2428 7.62519 31.8518 10.0162 28.8792 10.0162C28.8146 10.0162 28.8146 10.0162 28.75 10.0162C28.75 10.1454 28.75 10.3393 28.75 10.4685C28.75 14.6689 32.1749 18.0291 36.3106 18.0291C40.511 18.0291 43.8713 14.6042 43.8713 10.4685C43.8713 6.33277 40.5756 2.84326 36.3752 2.84326Z" fill="#A6C3EE"/>
<path d="M28.9435 0C26.4233 0 24.3555 2.06785 24.3555 4.58806C24.3555 7.10827 26.4233 9.17611 28.9435 9.17611C31.4638 9.17611 33.5316 7.10827 33.5316 4.58806C33.5316 2.06785 31.5284 0 28.9435 0ZM28.9435 8.4653C26.8111 8.4653 25.0663 6.72054 25.0663 4.58806C25.0663 2.45557 26.8111 0.710812 28.9435 0.710812C31.076 0.710812 32.8208 2.45557 32.8208 4.58806C32.8208 6.72054 31.076 8.4653 28.9435 8.4653Z" fill="#3265B1"/>
<path d="M30.7528 4.2004H29.3311V2.06788C29.3311 1.87402 29.1373 1.68018 28.9434 1.68018C28.7495 1.68018 28.5557 1.87402 28.5557 2.06788V4.58811C28.5557 4.78197 28.7495 4.97582 28.9434 4.97582H30.7528C30.9466 4.97582 31.1405 4.78197 31.1405 4.58811C31.1405 4.39425 31.0113 4.2004 30.7528 4.2004Z" fill="#3265B1"/>
<path d="M37.1503 9.82229H35.664C35.2117 9.82229 34.8886 9.49921 34.8886 9.04687C34.8886 8.59452 35.2117 8.27141 35.664 8.27141H37.8612H38.4427V7.17285H37.8612H35.664C34.6301 7.17285 33.79 8.01294 33.79 9.04687C33.79 10.0808 34.6301 10.9208 35.664 10.9208H37.1503C37.6027 10.9208 37.9258 11.244 37.9258 11.6963C37.9258 12.1486 37.6027 12.4718 37.1503 12.4718H34.9532H34.3716V13.5703H34.9532H37.1503C38.1843 13.5703 39.0243 12.7302 39.0243 11.6963C39.0243 10.6624 38.1843 9.82229 37.1503 9.82229Z" fill="white"/>
<path d="M35.8579 14.6692V15.2508H36.9565V14.6692V14.0229H35.8579V14.6692Z" fill="white"/>
<path d="M36.9565 6.13922V5.55762H35.8579V6.13922V6.78543H36.9565V6.13922Z" fill="white"/>
<path d="M18 15.6001H14V18.6001H18V15.6001Z" fill="#3265B1"/>
<path d="M19 14.924V9.07593C19 8.99998 19 9 18.924 9H13.076C13 9 13 8.99998 13 9.07593V14.924C13 15 13 15 13.076 15L19 14.924C19 15 19 15 19 14.924Z" fill="#3265B1"/>
<path d="M16.1613 22.427L16.3864 22.502L19.8368 23.4021V19.3516H12.4858V23.4021L15.9363 22.502L16.1613 22.427Z" fill="#3265B1"/>
<path d="M4.98506 20.1017H5.36011V25.2023L6.86031 24.8273V20.1017H7.23535V24.7523L8.73555 24.3772V20.1017H9.1106V24.3022L10.7608 23.8522V19.7266C10.7608 19.5016 10.6108 19.3516 10.3858 19.3516H3.85991C3.63488 19.3516 3.48486 19.5016 3.48486 19.7266V25.7274L5.13509 25.2774V20.1017H4.98506Z" fill="#A6C3EE"/>
<path d="M23.2126 20.1013H23.5876V24.3769L25.0878 24.7519V20.1013H25.4629V24.8269L26.9631 25.202V20.1013H27.3381V25.352L28.9883 25.8021V19.8013C28.9883 19.5763 28.8383 19.4263 28.6133 19.4263H22.0875C21.8624 19.4263 21.7124 19.5763 21.7124 19.8013V23.9269L23.3626 24.3769V20.1013H23.2126Z" fill="#A6C3EE"/>
<path d="M46.9904 37.9542C46.5404 37.7291 46.0903 37.6541 45.5652 37.6541C44.5151 37.6541 44.065 37.9542 43.39 38.4042C42.6399 38.9293 41.5897 39.6044 39.7895 39.6044C37.9892 39.6044 36.9391 38.9293 36.189 38.4042C35.5139 37.9542 35.0639 37.6541 34.0137 37.6541C32.9636 37.6541 32.5135 37.9542 31.8384 38.4042C31.0883 38.9293 30.0382 39.6044 28.238 39.6044C26.3627 39.6044 25.3876 38.9293 24.5625 38.4042C23.8874 37.9542 23.4373 37.6541 22.3872 37.6541C21.3371 37.6541 20.887 37.9542 20.2119 38.4042C19.4618 38.9293 18.4117 39.6044 16.5364 39.6044C14.6612 39.6044 13.6861 38.9293 12.936 38.4042C12.2609 37.9542 11.8108 37.6541 10.7607 37.6541C9.71054 37.6541 9.26049 37.9542 8.5854 38.4042C7.8353 38.9293 6.78515 39.6044 4.98492 39.6044C3.18468 39.6044 2.13455 38.9293 1.38445 38.4042C1.23443 38.2542 1.00939 38.1792 0.859375 38.1042V43.1298H22.2372H22.4622H22.6872H45.5652H45.7903H47.2155V37.5791L46.9904 37.9542Z" fill="#A6C3EE"/>
<path d="M10.686 36.7539C12.0362 36.7539 12.6362 37.204 13.3863 37.6541C14.0614 38.1041 14.8115 38.6292 16.2367 38.7042V23.3271L0.784668 27.3777L6.03536 38.6292C6.93547 38.4792 7.53556 38.0291 8.06063 37.6541C8.73572 37.129 9.3358 36.7539 10.686 36.7539Z" fill="#A6C3EE"/>
<path d="M16.4617 38.704C18.0369 38.704 18.862 38.1039 19.6121 37.6538C20.3622 37.1288 20.9623 36.7537 22.3124 36.7537C23.6626 36.7537 24.2627 37.2038 25.0128 37.6538C25.3878 37.9539 25.8379 38.2539 26.438 38.4039L31.6136 27.3025L16.1616 23.252V38.629C16.2366 38.704 16.3867 38.704 16.4617 38.704Z" fill="#3265B1"/>
</svg>
