<svg width="44" height="40" viewBox="0 0 44 40" fill="none" xmlns="http://www.w3.org/2000/svg">
<path d="M23.9163 40C22.5876 40 21.2589 39.7902 20.0002 39.5105C19.6505 39.4405 19.3708 39.0209 19.4408 38.6713C19.5107 38.3216 19.9302 38.0419 20.2799 38.1119C21.4687 38.3916 22.6575 38.5314 23.9163 38.6014C24.3358 38.6014 24.6156 38.951 24.6156 39.3007C24.6156 39.7203 24.3358 40 23.9163 40ZM27.0631 39.1608C26.9932 38.7412 27.2729 38.3916 27.6225 38.3216C28.8113 38.1119 30.0002 37.7622 31.119 37.2727C31.4687 37.1328 31.8883 37.2727 32.0282 37.6923C32.168 38.042 32.0281 38.4615 31.6086 38.6014C30.4197 39.0909 29.0911 39.5105 27.8324 39.7202C27.7624 39.7202 27.7624 39.7202 27.6925 39.7202C27.4128 39.7202 27.0631 39.5105 27.0631 39.1608ZM16.2939 38.1818C15.1051 37.6224 13.9862 36.9231 12.9372 36.0839C12.6575 35.8741 12.5876 35.3846 12.7974 35.1049C13.0072 34.8252 13.4967 34.7552 13.7764 34.965C14.7554 35.7342 15.8044 36.3636 16.8533 36.8531C17.203 36.993 17.3429 37.4126 17.203 37.8322C17.0631 38.1119 16.8533 38.2517 16.5736 38.2517C16.5037 38.2517 16.4338 38.2517 16.2939 38.1818ZM34.1261 36.5035C33.9163 36.1538 33.9862 35.7342 34.3358 35.5244C35.3149 34.8251 36.2939 34.0559 37.133 33.1469C37.4128 32.8671 37.8323 32.8671 38.112 33.1469C38.3918 33.4266 38.3918 33.8461 38.112 34.1258C37.2029 35.1049 36.2239 35.944 35.1051 36.7133C34.9652 36.7832 34.8253 36.8531 34.6855 36.8531C34.4757 36.8531 34.2659 36.7133 34.1261 36.5035ZM10.0701 33.4265C9.23097 32.4475 8.46173 31.3287 7.83236 30.2098C7.62257 29.8601 7.76245 29.4405 8.1121 29.2307C8.46175 29.021 8.8813 29.1608 9.09109 29.5105C9.65053 30.5594 10.3498 31.6084 11.189 32.5175C11.4687 32.7972 11.3988 33.2867 11.1191 33.4965C10.9792 33.6364 10.8394 33.6364 10.6296 33.6364C10.4198 33.6364 10.21 33.5664 10.0701 33.4265ZM39.5106 31.2587C39.161 31.0489 39.0911 30.6293 39.3008 30.2797C39.9302 29.2307 40.4897 28.1119 40.9092 26.993C41.0491 26.6434 41.4687 26.4336 41.8184 26.5734C42.168 26.7133 42.3778 27.1328 42.2379 27.4825C41.8183 28.7412 41.189 29.9301 40.5596 31.049C40.4197 31.2587 40.21 31.3986 39.9302 31.3986C39.7904 31.3986 39.6505 31.3287 39.5106 31.2587ZM6.36385 26.5035C6.0142 25.2448 5.73448 23.9161 5.66455 22.5874V22.5175C5.66455 22.0979 5.94425 21.7483 6.29389 21.7483C6.71347 21.6783 7.06315 22.028 7.06315 22.3776V22.4476C7.13308 23.6364 7.41277 24.8951 7.69249 26.014C7.83235 26.3636 7.6226 26.7832 7.20302 26.9231C7.13309 26.9231 7.06312 26.9231 6.99319 26.9231C6.71347 26.993 6.43378 26.7832 6.36385 26.5035ZM42.3778 24.2657C41.9582 24.1958 41.7484 23.8462 41.7484 23.4965C41.8183 22.7273 41.8883 21.958 41.8883 21.1888C41.8883 20.7692 41.8883 20.2797 41.8184 19.8602C41.8184 19.4406 42.098 19.1608 42.4477 19.0909C42.8673 19.0909 43.147 19.3706 43.217 19.7203C43.2869 20.2098 43.2869 20.6993 43.2869 21.1888C43.2869 22.028 43.2169 22.8671 43.147 23.6363C43.0771 23.986 42.7974 24.2657 42.4477 24.2657H42.3778ZM41.189 16.2238C40.8393 15.035 40.3498 13.9161 39.7904 12.8672C39.5806 12.5175 39.7205 12.0979 40.0701 11.8881C40.4198 11.6783 40.8393 11.8182 41.0491 12.1679C41.6785 13.3567 42.168 14.5455 42.5177 15.8042C42.6575 16.1539 42.3778 16.5734 42.0281 16.7133C41.9582 16.7133 41.8883 16.7133 41.8184 16.7133C41.5386 16.7133 41.2589 16.5734 41.189 16.2238ZM37.7624 9.86018C36.9932 8.95109 36.0841 8.1119 35.1051 7.34267C34.8253 7.13288 34.7554 6.6434 34.9652 6.36368C35.175 6.08396 35.6645 6.01402 35.9442 6.22381C36.9932 6.99304 37.9722 7.97203 38.8113 8.95105C39.0911 9.23077 39.0211 9.7203 38.7414 9.93009C38.6016 10.07 38.4617 10.07 38.2519 10.07C38.0421 10.07 37.9022 10 37.7624 9.86018ZM32.0282 5.45455C30.9093 4.89511 29.7904 4.54547 28.6016 4.19582C28.2519 4.12589 27.9722 3.70631 28.1121 3.35666C28.182 3.00701 28.6016 2.72732 28.9512 2.86718C30.21 3.1469 31.4687 3.63638 32.6575 4.19582C33.0072 4.33568 33.147 4.82521 33.0072 5.17486C32.8673 5.45458 32.6575 5.59442 32.3778 5.59442C32.168 5.52449 32.0981 5.45455 32.0282 5.45455ZM20.4897 3.42661C20.4198 3.00703 20.6995 2.65737 21.0491 2.58744C21.6785 2.44758 22.3079 2.37764 22.9373 2.30771C23.6366 2.23778 24.2659 2.23779 24.9652 2.23779C25.3848 2.23779 25.6645 2.58744 25.6645 2.93709C25.6645 3.35667 25.3149 3.63639 24.9652 3.63639C24.3358 3.63639 23.7065 3.63638 23.0771 3.70631C22.5176 3.77624 21.8883 3.8462 21.3288 3.91613C21.2589 3.91613 21.2589 3.91613 21.189 3.91613C20.8394 3.98606 20.5596 3.77626 20.4897 3.42661Z" fill="#3265B1"/>
<path d="M20.0698 9.30079C20.0698 8.32177 19.93 7.34275 19.6503 6.50359C21.1887 6.01408 22.7971 5.73438 24.4754 5.73438C33.0069 5.73438 39.86 12.6574 39.86 21.119C39.86 29.6504 32.9369 36.5036 24.4754 36.5036C15.944 36.5036 9.09082 29.5805 9.09082 21.119C9.09082 20.7693 9.09085 20.4197 9.16078 20.07C9.23071 20.07 9.30063 20.07 9.37056 20.07C15.2447 20.07 20.0698 15.2448 20.0698 9.30079Z" fill="#A6C3EE"/>
<path d="M25.8041 20.1396H23.1468C22.3776 20.1396 21.7482 19.5102 21.7482 18.741C21.7482 17.9718 22.3776 17.3424 23.1468 17.3424H27.1328H28.1118V15.3145H27.1328H23.1468C21.2587 15.3145 19.7202 16.8529 19.7202 18.741C19.7202 20.6291 21.2587 22.1676 23.1468 22.1676H25.8041C26.5734 22.1676 27.2027 22.797 27.2027 23.5662C27.2027 24.3354 26.5734 24.9648 25.8041 24.9648H21.8181H20.8391V26.9928H21.8181H25.8041C27.6922 26.9928 29.2307 25.4543 29.2307 23.5662C29.2307 21.6781 27.6922 20.1396 25.8041 20.1396Z" fill="white"/>
<path d="M23.4263 28.8812V29.9301H25.4543V28.8812V27.6924H23.4263V28.8812Z" fill="white"/>
<path d="M25.4543 13.4264V12.3774H23.4263V13.4264V14.5453H25.4543V13.4264Z" fill="white"/>
<path d="M9.86015 0H8.8112C3.9161 0.27972 0 4.33565 0 9.30068C0 14.4755 4.19582 18.6713 9.37063 18.6713C14.5455 18.6713 18.7413 14.4755 18.7413 9.30068C18.6713 4.33565 14.7552 0.27972 9.86015 0ZM9.30072 17.1328C4.96506 17.1328 1.46855 13.6363 1.46855 9.30068C1.46855 4.96502 4.96506 1.46856 9.30072 1.46856C13.6364 1.46856 17.1328 4.96502 17.1328 9.30068C17.1328 13.6363 13.6364 17.1328 9.30072 17.1328Z" fill="#3265B1"/>
<path d="M12.9372 8.60106H10.0002V4.12557C10.0002 3.70599 9.65051 3.42627 9.30086 3.42627C8.95121 3.42627 8.60156 3.77592 8.60156 4.12557V9.30036C8.60156 9.71994 8.95121 9.99966 9.30086 9.99966H13.0071C13.4267 9.99966 13.7064 9.65001 13.7064 9.30036C13.7064 8.95071 13.3568 8.60106 12.9372 8.60106Z" fill="#3265B1"/>
</svg>
