<svg width="41" height="40" viewBox="0 0 41 40" fill="none" xmlns="http://www.w3.org/2000/svg">
<path d="M38.509 3.24121H14.3275C13.4848 3.24121 12.8364 3.95433 12.8364 4.73229V7.97377H40.0649V4.73229C40.0001 3.95433 39.3518 3.24121 38.509 3.24121Z" fill="#3265B1"/>
<path d="M12.7715 20.3563C13.2901 20.3563 13.8088 20.5508 14.1977 20.9398C14.9757 21.7177 14.9757 22.8847 14.1977 23.6626L14.0681 23.7923C14.5867 23.7275 15.1702 23.9219 15.5592 24.3758C16.2723 25.0889 16.2723 26.3207 15.624 27.0338H38.5737C39.4165 27.0338 40.0648 26.3207 40.0648 25.5427V9.52979H12.8363V20.3563H12.7715ZM21.4587 25.2186H16.5965V21.9771H21.4587V25.2186ZM21.4587 19.8377H16.5965V16.5962H21.4587V19.8377ZM31.3128 11.2153H36.175V14.4568H31.3128V11.2153ZM31.3128 16.5962H36.175V19.8377H31.3128V16.5962ZM31.3128 21.9771H36.175V25.2186H31.3128V21.9771ZM23.9222 11.2153H28.7844V14.4568H23.9222V11.2153ZM23.9222 16.5962H28.7844V19.8377H23.9222V16.5962ZM23.9222 21.9771H28.7844V25.2186H23.9222V21.9771ZM17.1151 11.6043L18.8655 13.3547L21.5235 10.6967L22.3663 11.5395L18.8655 15.0403L16.2723 12.4471L17.1151 11.6043Z" fill="#A6C3EE"/>
<path d="M22.3664 11.5396L21.5236 10.6968L18.8656 13.3548L17.1152 11.6044L16.2725 12.4472L18.8656 15.0404L22.3664 11.5396Z" fill="#3265B1"/>
<path d="M28.7846 11.2158H23.9224V14.4573H28.7846V11.2158Z" fill="white"/>
<path d="M36.1747 11.2158H31.3125V14.4573H36.1747V11.2158Z" fill="white"/>
<path d="M21.4584 16.5967H16.5962V19.8382H21.4584V16.5967Z" fill="white"/>
<path d="M28.7846 16.5967H23.9224V19.8382H28.7846V16.5967Z" fill="white"/>
<path d="M36.1747 16.5967H31.3125V19.8382H36.1747V16.5967Z" fill="white"/>
<path d="M21.4584 21.9775H16.5962V25.219H21.4584V21.9775Z" fill="white"/>
<path d="M28.7846 21.9775H23.9224V25.219H28.7846V21.9775Z" fill="white"/>
<path d="M36.1747 21.9775H31.3125V25.219H36.1747V21.9775Z" fill="white"/>
<path d="M19.3841 0.842778C19.3841 0.38897 18.9951 0 18.5413 0H17.8281C17.3743 0 16.9854 0.38897 16.9854 0.842778V2.33385H19.3192V0.842778H19.3841Z" fill="#A6C3EE"/>
<path d="M35.721 0.842778C35.721 0.38897 35.332 0 34.8782 0H34.165C33.7112 0 33.3223 0.38897 33.3223 0.842778V2.33385H35.6561V0.842778H35.721Z" fill="#A6C3EE"/>
<path d="M0 17.4392V33.0632C0 33.1928 0.0648376 33.3873 0.129667 33.517C0.259327 33.7115 0.453832 33.7763 0.71315 33.7763H1.62074V16.7261H0.71315C0.324172 16.7261 0 17.0502 0 17.4392Z" fill="#A6C3EE"/>
<path d="M10.8268 26.3858V21.6532V17.5041C10.8268 17.1151 10.5026 16.791 10.1137 16.791H4.08447V33.8412H9.3357C9.40053 33.8412 9.46535 33.8412 9.53018 33.8412C9.72467 33.7764 9.85434 33.7115 9.984 33.5819L10.0488 33.5171C10.3081 33.1281 10.3081 32.6743 9.984 32.3501L6.87218 29.2383C6.80735 29.1735 6.80734 29.1087 6.74251 29.1087L6.61285 28.8493C6.41836 28.59 6.35353 28.3307 6.2887 28.0065V27.9417C6.2887 27.812 6.2887 27.7472 6.2887 27.6175C6.2887 27.5527 6.2887 27.5527 6.2887 27.4879C6.2887 27.4879 6.2887 27.4879 6.2887 27.4231C6.2887 27.4231 6.2887 27.4231 6.2887 27.3582C6.2887 27.2934 6.2887 27.2934 6.2887 27.2286C6.35353 26.9693 6.41837 26.7748 6.54803 26.5803C6.61286 26.4506 6.67767 26.3858 6.80733 26.2561L6.87218 26.1913C7.00184 26.1265 7.06665 26.0616 7.13148 25.9968C7.13148 25.9968 7.1315 25.9968 7.19633 25.9968C7.19633 25.9968 7.26114 25.9968 7.26114 25.932C7.3908 25.8672 7.45565 25.8671 7.52048 25.8023C7.58531 25.8023 7.65011 25.7375 7.65011 25.7375C7.71493 25.7375 7.7798 25.7375 7.84463 25.6727C7.84463 25.6727 7.84461 25.6727 7.90944 25.6727C7.97427 25.6727 8.03909 25.6727 8.10392 25.6727C8.16875 25.6727 8.2336 25.6727 8.36326 25.6727C8.42809 25.6727 8.49292 25.6727 8.49292 25.6727C8.55775 25.6727 8.62256 25.6727 8.75222 25.7375C8.81705 25.7375 8.88189 25.7375 8.88189 25.8023C8.94671 25.8023 9.07639 25.8672 9.14122 25.932C9.14122 25.932 9.20603 25.932 9.20603 25.9968C9.20603 25.9968 9.20602 25.9968 9.27085 25.9968C9.40051 26.0616 9.53017 26.1913 9.595 26.2561L10.8916 27.5527V26.3858H10.8268Z" fill="#A6C3EE"/>
<path d="M12.7713 24.3115L13.8085 23.2743C14.392 22.6908 14.392 21.7832 13.8085 21.2645C13.4844 20.9404 13.0954 20.8108 12.7064 20.8756C12.3823 20.8756 11.9933 21.0052 11.734 21.2645L11.2153 21.7832V25.8675L12.7713 24.3115Z" fill="#3265B1"/>
<path d="M14.9104 26.9697L15.2346 26.6455C15.8181 26.0621 15.8181 25.1545 15.2346 24.6358C14.6511 24.0524 13.7435 24.0524 13.2249 24.6358L12.8359 25.0248L11.5393 26.3214L11.4097 26.4511V28.1367L12.5766 29.3036L14.0677 27.8125L14.9104 26.9697Z" fill="#3265B1"/>
<path d="M16.4017 28.2013C15.8182 27.6178 14.9106 27.6178 14.392 28.2013L12.9009 29.6923L14.9106 31.7021L16.4017 30.211C16.9203 29.6923 16.9203 28.7847 16.4017 28.2013Z" fill="#3265B1"/>
<path d="M8.94643 26.5158L8.88162 26.451C8.81679 26.3861 8.75197 26.3861 8.68714 26.3861H8.62229C8.49263 26.3861 8.49263 26.3213 8.4278 26.3213H8.36299C8.29816 26.3213 8.23334 26.3213 8.16851 26.3213C8.10368 26.3213 8.10367 26.3213 8.03884 26.3213C7.97401 26.3213 7.90919 26.3213 7.84436 26.3861C7.77953 26.3861 7.77952 26.3861 7.71469 26.451C7.64986 26.451 7.58504 26.5158 7.52021 26.5158C7.45538 26.5158 7.45538 26.5806 7.39055 26.5806C7.32572 26.6455 7.26089 26.6455 7.19606 26.7103L7.13121 26.7751C7.06638 26.8399 7.00156 26.9048 6.93673 27.0344C6.8719 27.1641 6.80708 27.3586 6.74225 27.4883C6.74225 27.4883 6.74225 27.4882 6.74225 27.5531C6.74225 27.5531 6.74225 27.5531 6.74225 27.6179V27.6827V27.7476C6.74225 27.8124 6.74225 27.8772 6.74225 27.942C6.80708 28.2013 6.87188 28.4607 7.00154 28.6552C7.06637 28.72 7.13124 28.7848 7.19606 28.8497L10.3079 31.9615C10.7617 32.4153 10.8265 33.1933 10.4375 33.7119C10.3727 33.7767 10.3727 33.8415 10.3079 33.9064C10.1134 34.1009 9.85405 34.2305 9.59473 34.2954C9.5299 34.2954 9.40027 34.2954 9.33544 34.2954H3.56558H2.52832C2.9173 35.2678 3.50075 36.1754 4.21388 36.8886L7.32569 40.0004H16.0777V35.6568C16.0777 34.3602 15.5591 33.1932 14.6515 32.2856L9.14096 26.7751C9.14096 26.6454 9.01126 26.5806 8.94643 26.5158Z" fill="#3265B1"/>
<path d="M1.62061 16.7261V33.7763H2.2689H2.59305H4.08413V16.7261H1.62061Z" fill="#3265B1"/>
</svg>
