<svg width="12" height="12" viewBox="0 0 12 12" fill="none" xmlns="http://www.w3.org/2000/svg">
<path fill-rule="evenodd" clip-rule="evenodd" d="M5.28903 0.408899C5.40552 0.408716 5.53085 0.408772 5.66609 0.408833L5.88899 0.408899C7.67468 0.408899 7.88633 0.415308 8.59149 0.447354C9.24357 0.477172 9.59748 0.58613 9.83323 0.677671C10.1453 0.798891 10.3678 0.943797 10.6018 1.17788C10.8359 1.41196 10.9808 1.63489 11.1023 1.94699C11.1938 2.18247 11.3029 2.53637 11.3326 3.18845C11.3646 3.89347 11.3716 4.10526 11.3716 5.89011C11.3716 7.67496 11.3646 7.88675 11.3326 8.59177C11.3028 9.24385 11.1938 9.59776 11.1023 9.83323C10.981 10.1453 10.8359 10.3676 10.6018 10.6015C10.3677 10.8356 10.1455 10.9805 9.83323 11.1017C9.59775 11.1937 9.24357 11.3024 8.59149 11.3322C7.88647 11.3642 7.67468 11.3712 5.88899 11.3712C4.10317 11.3712 3.89152 11.3642 3.1865 11.3322C2.53442 11.3021 2.18051 11.1931 1.94462 11.1016C1.63252 10.9804 1.40959 10.8354 1.17551 10.6014C0.941427 10.3673 0.796521 10.1449 0.675023 9.83267C0.583481 9.5972 0.474384 9.24329 0.444706 8.59122C0.412659 7.88619 0.40625 7.67441 0.40625 5.88844C0.40625 4.10247 0.412659 3.8918 0.444706 3.18678C0.474523 2.5347 0.583481 2.18079 0.675023 1.94504C0.796242 1.63294 0.941427 1.41 1.17551 1.17593C1.40959 0.941846 1.63252 0.79694 1.94462 0.675442C2.18037 0.583483 2.53442 0.474803 3.1865 0.444846C3.80346 0.41698 4.04256 0.40862 5.28903 0.407227V0.408899ZM9.45955 1.51943C9.01648 1.51943 8.657 1.87849 8.657 2.32171C8.657 2.76479 9.01648 3.12426 9.45955 3.12426C9.90263 3.12426 10.2621 2.76479 10.2621 2.32171C10.2621 1.87863 9.90263 1.51915 9.45955 1.51915V1.51943ZM2.45483 5.89171C2.45483 3.99502 3.99257 2.45723 5.88925 2.45716C7.78598 2.45716 9.32338 3.99497 9.32338 5.89171C9.32338 7.78845 7.78612 9.32557 5.88939 9.32557C3.99265 9.32557 2.45483 7.78845 2.45483 5.89171Z" fill="white"/>
<path fill-rule="evenodd" clip-rule="evenodd" d="M5.88899 3.66211C7.12014 3.66211 8.11832 4.66015 8.11832 5.89143C8.11832 7.12258 7.12014 8.12076 5.88899 8.12076C4.65771 8.12076 3.65967 7.12258 3.65967 5.89143C3.65967 4.66015 4.65771 3.66211 5.88899 3.66211V3.66211Z" fill="white"/>
</svg>
