<svg width="18" height="18" viewBox="0 0 18 18" fill="none" xmlns="http://www.w3.org/2000/svg">
<mask id="path-1-inside-1" fill="white">
<path fill-rule="evenodd" clip-rule="evenodd" d="M16 0H2C0.9 0 0 0.9 0 2V16C0 17.1 0.9 18 2 18H16C17.1 18 18 17.1 18 16V2C18 0.9 17.1 0 16 0Z"/>
</mask>
<path d="M16 -2H2V2H16V-2ZM2 -2C-0.20457 -2 -2 -0.20457 -2 2H2V-2ZM-2 2V16H2V2H-2ZM-2 16C-2 18.2046 -0.204569 20 2 20V16H-2ZM2 20H16V16H2V20ZM16 20C18.2046 20 20 18.2046 20 16H16V20ZM20 16V2H16V16H20ZM20 2C20 -0.204569 18.2046 -2 16 -2V2H20Z" fill="#3367B1" mask="url(#path-1-inside-1)"/>
</svg>
