<svg width="382" height="216" viewBox="0 0 382 216" fill="none" xmlns="http://www.w3.org/2000/svg">
<g clip-path="url(#clip0)">
<path d="M708.655 -178.965L709.921 -176.538C708.688 -175.897 586.318 -112.16 530.809 -88.9315C477.37 -66.5642 378.411 -31.8608 328.363 -15.4479C294.015 -4.18307 237.456 13.3152 187.555 28.7456C154.261 39.0468 122.815 48.7764 100.335 55.8977C63.4838 67.6107 -47.2873 104.126 -48.3997 104.492L-49.2578 101.894C-48.1454 101.529 62.6441 65.0047 99.5166 53.3083C122.008 46.1725 153.461 36.4486 186.755 26.1474C236.644 10.7187 293.19 -6.77801 327.52 -18.0339C377.523 -34.4346 476.383 -69.0991 529.754 -91.4381C585.157 -114.633 707.429 -178.318 708.655 -178.965Z" fill="#F7F7FF" stroke="#F7F7FF" stroke-width="2" stroke-miterlimit="10"/>
<path d="M195.173 25.2273L220.471 246.607L177.952 278.222L176.318 276.019L217.564 245.349L192.451 25.5413L195.173 25.2273Z" fill="#F7F7FF" stroke="#F7F7FF" stroke-width="2" stroke-miterlimit="10"/>
<path d="M243.693 -109.291L245.099 -106.941L140.629 -44.4851L110.472 21.2887L111.519 51.316L108.782 51.4105L107.703 20.7363L107.84 20.4385L138.492 -46.3954L138.86 -46.619L243.693 -109.291Z" fill="#F7F7FF"/>
<path d="M110.694 40.5245L104.699 125.377L147.929 217.955L147.956 218.056L157.278 260.945L155.491 261.333L146.195 218.544L102.842 125.722L102.85 125.487L108.873 40.4025L110.694 40.5245Z" fill="#F7F7FF"/>
<path d="M104.375 118.635L193.604 112.86L193.486 111.04L104.257 116.814L104.375 118.635Z" fill="#F7F7FF"/>
<path d="M112.848 145.978L161.625 139.62L161.27 136.905L112.494 143.263L112.848 145.978Z" fill="#F7F7FF"/>
<path d="M136.872 141.531L138.661 141.157L133.345 115.747L131.555 116.121L136.872 141.531Z" fill="#F7F7FF"/>
<path d="M123.993 143.28L125.747 142.764L118.025 116.669L116.272 117.186L123.993 143.28Z" fill="#F7F7FF"/>
<path d="M281.672 85.9866L281.175 88.6816L242.827 81.6292L201.273 90.7946L143.439 97.2143L143.138 94.4927L200.901 88.0758L242.778 78.8359L281.672 85.9866Z" fill="#F7F7FF"/>
<path d="M107.997 71.7973L176.819 54.1289L176.137 51.4766L107.315 69.145L107.997 71.7973Z" fill="#F7F7FF"/>
<path d="M111.851 87.5555L174.25 79.4092L173.895 76.6941L111.496 84.8404L111.851 87.5555Z" fill="#F7F7FF"/>
<path d="M161.679 114.051L163.5 113.883L161.641 93.8249L159.82 93.9936L161.679 114.051Z" fill="#F7F7FF"/>
<path d="M144.637 115.14L146.46 114.993L143.803 82.0439L141.98 82.1909L144.637 115.14Z" fill="#F7F7FF"/>
<path d="M145.082 40.4805L150.388 58.8825L157.244 80.0915L155.505 80.6555L148.639 59.4153L143.317 40.9894L145.082 40.4805Z" fill="#F7F7FF"/>
<path d="M123.059 47.3537L127.864 65.267L132.805 83.3191L131.037 83.8023L126.102 65.743L121.296 47.8297L123.059 47.3537Z" fill="#F7F7FF"/>
<path d="M104.473 113.6L104.612 115.425L19.8395 121.744L-32.9179 98.6421L-32.1777 96.9639L20.1525 119.887L104.473 113.6Z" fill="#F7F7FF"/>
<path d="M60.6386 118.21L62.1934 117.249L36.0828 75.0544L34.5281 76.0151L60.6386 118.21Z" fill="#F7F7FF"/>
<path d="M84.4201 116.421L85.9976 115.498L58.1079 67.8945L56.5304 68.8174L84.4201 116.421Z" fill="#F7F7FF"/>
<path d="M18.734 45.318L43.7008 72.388L42.3504 73.6309L18.5425 47.8105L-19.7185 78.4968L-7.40533 89.0361L-8.58762 90.4199L-22.5783 78.451L18.734 45.318Z" fill="#F7F7FF"/>
<path d="M26.0091 79.0574L27.2227 77.6914L4.59569 57.6202L3.38217 58.9862L26.0091 79.0574Z" fill="#F7F7FF"/>
<path d="M10.7635 63.7251L23.8013 52.1982L22.5904 50.8307L9.55267 62.3575L10.7635 63.7251Z" fill="#F7F7FF"/>
<path d="M19.9925 72.7173L33.3218 62.6113L32.2173 61.1567L18.888 71.2627L19.9925 72.7173Z" fill="#F7F7FF"/>
<path d="M121.015 -7.18743L120.781 -5.37319L76.7689 -10.8049L68.1389 65.2256L66.3267 65.0179L75.1616 -12.8492L121.015 -7.18743Z" fill="#F7F7FF"/>
<path d="M70.4492 37.1861L109.625 38.8877L109.705 37.0612L70.5288 35.3596L70.4492 37.1861Z" fill="#F7F7FF"/>
<path d="M87.2706 58.1415L89.0571 58.5244L93.5949 37.4276L91.8084 37.0446L87.2706 58.1415Z" fill="#F7F7FF"/>
<path d="M5.11821 -34.0354L10.3596 -16.4316L70.121 44.8371L68.8067 46.1079L8.73689 -15.4789L3.3677 -33.5154L5.11821 -34.0354Z" fill="#F7F7FF"/>
<path d="M34.6999 10.0175L36.1475 11.1318L50.5475 -7.5451L49.0999 -8.65941L34.6999 10.0175Z" fill="#F7F7FF"/>
</g>
<defs>
<clipPath id="clip0">
<rect width="382" height="216" fill="white" transform="translate(382 216) rotate(-180)"/>
</clipPath>
</defs>
</svg>
