<svg width="47" height="40" viewBox="0 0 47 40" fill="none" xmlns="http://www.w3.org/2000/svg">
<path d="M45.7355 3.24342C41.9968 4.42407 37.9629 4.52241 34.2242 3.44015L22.5161 0.0950254C21.6307 -0.101749 20.7452 -0.0033977 20.0565 0.488538L1.36292 13.3773C0.0838915 14.2628 -0.408044 16.0337 0.379053 17.4111C0.969375 18.395 1.95325 18.8869 2.93712 18.8869C3.52744 18.8869 4.11776 18.6902 4.6097 18.395L9.82422 14.7547C9.82422 14.4595 9.82422 14.1644 9.82422 13.8692C10.1194 11.7047 12.0871 10.0321 14.35 10.0321H16.6129L20.0565 7.67084C20.7452 7.17891 21.729 6.98211 22.5161 7.27727L27.042 8.55629C28.5178 8.94984 28.6162 10.9176 27.1403 11.5079H14.2516C12.6774 11.5079 11.3 12.6886 11.2016 14.1644C11.0049 15.9353 12.3823 17.4111 14.1532 17.4111H30.2887C32.4532 17.4111 34.5194 17.116 36.5855 16.4273L46.9161 13.1805V2.84985L45.7355 3.24342Z" fill="#FF3E32" fill-opacity="0.2"/>
<path d="M23.4996 39.3791C29.205 39.3791 33.8302 34.7539 33.8302 29.0484C33.8302 23.343 29.205 18.7178 23.4996 18.7178C17.7941 18.7178 13.1689 23.343 13.1689 29.0484C13.1689 34.7539 17.7941 39.3791 23.4996 39.3791Z" fill="#FF3E32"/>
<path d="M25.864 24.9974L19.5186 31.3428L21.0294 32.8536L27.3748 26.5082L25.864 24.9974Z" fill="white"/>
<path d="M19.5413 26.5569L25.8867 32.9023L27.3975 31.3915L21.0521 25.0461L19.5413 26.5569Z" fill="white"/>
</svg>
