<svg viewBox="0 0 52 53" fill="none" xmlns="http://www.w3.org/2000/svg">
                              <path d="M19.421 26.563h-6.27v9.144h6.27v-9.145zM27.26 22.556h-6.271v13.238h6.27V22.556zM35.184 18.55h-6.27v17.244h6.27V18.55z" fill="#A6C3EE"/>
                              <path d="M50.25 23.166L46.158 21.6c-.783-.349-1.741.087-2.09.87l-2.786 7.055c-.349.783.087 1.741.87 2.09l3.31 1.306c-.174.436-.349.871-.61 1.306-2.264 4.616-6.01 8.448-10.712 10.712-.435.175-.87.436-1.306.61l-1.307-3.31c-.348-.783-1.219-1.218-2.09-.87l-7.054 2.787c-.784.348-1.22 1.219-.87 2.09l1.567 4.093.087.349c.435 1.045 1.48 1.741 2.613 1.654 3.57-.261 6.967-1.132 10.102-2.613A28.23 28.23 0 0049.38 36.23c1.48-3.136 2.351-6.532 2.612-10.103.088-1.132-.61-2.177-1.654-2.613l-.087-.348z" fill="#3265B1"/>
                              <path d="M19.77 45.722C9.666 43.72 1.915 34.75 1.915 24.037c0-12.193 9.928-22.121 22.12-22.121 10.713 0 19.683 7.664 21.686 17.766.349 0 .784.087 1.132.262l.958.348C45.984 8.796 36.055 0 24.037 0 10.799 0 0 10.8 0 24.037c0 12.018 8.796 21.947 20.292 23.775l-.348-.958c-.087-.435-.175-.783-.175-1.132z" fill="#3265B1"/>
                              <path d="M35.185 10.102h-6.27v2.004L13.15 20.118v2.438l15.763-8.012v2.439l6.27-6.88z" fill="#3265B1"/>
                           </svg>