<svg viewBox="0 0 52 52" fill="none" xmlns="http://www.w3.org/2000/svg">
                              <path d="M26 52C14.762 52 5.537 42.871 5.537 31.567c0-11.22 9.142-20.432 20.465-20.432 11.238 0 20.464 9.128 20.464 20.432 0 11.22-9.142 20.431-20.465 20.431zm0-39.022c-10.232 0-18.619 8.374-18.619 18.59s8.387 18.59 18.62 18.59c10.232 0 18.619-8.374 18.619-18.59 0-10.3-8.303-18.59-18.62-18.59z" fill="#3265B1"/>
                              <path d="M7.968 51.079c3.891 0 7.046-3.15 7.046-7.034 0-3.885-3.155-7.034-7.046-7.034-3.89 0-7.045 3.15-7.045 7.034 0 3.885 3.155 7.034 7.045 7.034z" fill="#fff"/>
                              <path d="M7.968 52C3.606 52 0 48.4 0 44.045c0-4.354 3.606-7.955 7.968-7.955 4.36 0 7.967 3.601 7.967 7.955A7.958 7.958 0 017.968 52zm0-14.068c-3.355 0-6.123 2.764-6.123 6.113 0 3.35 2.768 6.113 6.123 6.113 3.354 0 6.122-2.763 6.122-6.113a6.098 6.098 0 00-6.122-6.113z" fill="#3265B1"/>
                              <path d="M7.967 48.316a4.274 4.274 0 004.278-4.271 4.274 4.274 0 00-4.278-4.27 4.274 4.274 0 00-4.277 4.27 4.274 4.274 0 004.277 4.27z" fill="#A6C3EE"/>
                              <path d="M44.032 51.079c3.89 0 7.045-3.15 7.045-7.034 0-3.885-3.154-7.034-7.045-7.034s-7.045 3.15-7.045 7.034c0 3.885 3.154 7.034 7.045 7.034z" fill="#fff"/>
                              <path d="M44.032 52c-4.361 0-7.967-3.6-7.967-7.955 0-4.354 3.606-7.955 7.967-7.955S52 39.691 52 44.045A7.958 7.958 0 0144.032 52zm0-14.068c-3.355 0-6.122 2.764-6.122 6.113 0 3.35 2.767 6.113 6.122 6.113s6.123-2.763 6.123-6.113a6.098 6.098 0 00-6.123-6.113z" fill="#3265B1"/>
                              <path d="M44.032 48.316a4.274 4.274 0 004.277-4.271 4.274 4.274 0 00-4.277-4.27 4.274 4.274 0 00-4.278 4.27 4.274 4.274 0 004.278 4.27z" fill="#A6C3EE"/>
                              <path d="M19.374 30.061h-2.097v6.448h2.097v-6.448zM34.807 30.061H32.71v6.448h2.097v-6.448zM34.807 36.509a2.075 2.075 0 01-2.097 2.093H19.29a2.075 2.075 0 01-2.096-2.093h17.613zM24.994 26.126v3.936h-3.607L26 34.5l4.613-4.438H27.09v-3.936h-2.096zM26 0c-6.625 0-12.077 5.36-12.077 12.058 0 .837.084 1.591.252 2.428h11.826V0z" fill="#3265B1"/>
                              <path d="M26 4.856V.083v14.403H14.258c.335 1.759 1.09 3.433 2.18 4.773h19.207c1.09-1.423 1.845-3.014 2.18-4.773H26V9.713h11.825c-.335-1.758-1.09-3.433-2.18-4.773H26v-.084z" fill="#fff"/>
                              <path d="M35.645 5.694C33.465 2.763 29.942.084 26 .084v5.61h9.645zM26 14.487h11.826c.167-.754.251-1.591.251-2.429 0-.837-.084-1.59-.251-2.428H26v4.857zM26 24.116c3.943 0 7.381-2.763 9.646-5.61H16.439c2.181 2.847 5.62 5.61 9.562 5.61z" fill="#A6C3EE"/>
                              <path d="M26 1.842c5.62 0 10.233 4.606 10.233 10.216 0 5.61-4.613 10.216-10.232 10.216-5.62 0-10.233-4.606-10.233-10.216 0-5.61 4.613-10.216 10.233-10.216zM26 0c-6.625 0-12.077 5.36-12.077 12.058 0 6.615 5.368 12.058 12.078 12.058 6.71 0 12.077-5.36 12.077-12.058C38.078 5.443 32.71 0 26.001 0z" fill="#3265B1"/>
                              <path d="M22.142 9.797l.587 1.089 1.174.167-.839.838.168 1.172-1.09-.502-1.007.502.168-1.172-.839-.838 1.175-.167.503-1.089zM22.142 1.423l.587 1.089 1.174.167-.839.838.168 1.172-1.09-.586-1.007.586.168-1.172-.839-.838 1.175-.167.503-1.089zM16.858 9.797l.503 1.089 1.174.167-.838.838.167 1.172-1.006-.502-1.09.502.251-1.172-.922-.838 1.174-.167.587-1.089zM19.542 5.61l.503 1.089 1.174.167-.838.838.168 1.172-1.007-.586-1.09.586.167-1.172-.838-.838 1.174-.167.587-1.089z" fill="#fff"/>
                           </svg>