<svg viewBox="0 0 48 54" fill="none" xmlns="http://www.w3.org/2000/svg">
                              <path d="M23.24 29.128h1.52c1.1-2.62 3.634-4.479 6.677-4.479 1.267 0 2.45.338 3.464.93V4.875H13.183v20.704a6.851 6.851 0 013.465-.93c2.958 0 5.577 1.86 6.591 4.48zM24 .902H11.578V3.86H36.507V.902H24z" fill="#A6C3EE"/>
                              <path d="M20.197 7.749h-3.803v3.802h3.803V7.75zM25.944 7.748H22.14v3.802h3.803V7.748zM31.69 7.748h-3.803v3.802h3.803V7.748zM20.197 13.663h-3.803v3.803h3.803v-3.803zM25.944 13.663H22.14v3.803h3.803v-3.803zM31.69 13.663h-3.803v3.803h3.803v-3.803zM20.197 19.58h-3.803v3.803h3.803V19.58zM25.944 19.579H22.14v3.802h3.803V19.58zM31.69 19.579h-3.803v3.802h3.803V19.58z" fill="#fff"/>
                              <path d="M21.972 29.381a5.91 5.91 0 00-5.409-3.465 5.88 5.88 0 00-5.915 5.916 5.88 5.88 0 005.916 5.916h.337c-.084-.423-.168-.93-.168-1.437.084-3.296 2.281-6.085 5.239-6.93zM26.028 29.381a5.911 5.911 0 015.408-3.465 5.88 5.88 0 015.916 5.916 5.88 5.88 0 01-5.916 5.916h-.338c.085-.423.17-.93.17-1.437-.085-3.296-2.282-6.085-5.24-6.93z" fill="#3265B1"/>
                              <path d="M24 42.142a5.916 5.916 0 100-11.832 5.916 5.916 0 000 11.832zM17.577 39.353h-5.324a7.754 7.754 0 00-7.774 7.775v1.774h6.507c1.183-3.633 4.563-6.338 8.62-6.338h.929c-1.268-.76-2.366-1.859-2.958-3.211zM30.507 39.353h5.324a7.754 7.754 0 017.775 7.775v1.774h-6.507c-1.183-3.633-4.564-6.338-8.62-6.338h-.93c1.183-.76 2.282-1.859 2.958-3.211z" fill="#3265B1"/>
                              <path d="M28.395 43.748l-2.282 8.282-.507-5.24H22.395l-.508 5.24-2.281-8.282a7.754 7.754 0 00-7.775 7.775v1.774H36.17v-1.774a7.754 7.754 0 00-7.774-7.775z" fill="#3265B1"/>
                              <path d="M25.521 45.86l-.169-2.112H22.733l-.254 2.113h3.042z" fill="#3265B1"/>
                              <path d="M48 20.34H36.169v3.042H48v-3.043zM36.169 24.311v2.113c1.521 1.352 2.45 3.211 2.45 5.324 0 2.112-.929 4.056-2.45 5.324v.93c4.817.168 8.704 4.14 8.704 9.041v1.775h1.521V24.311H36.17zM11.831 20.34H0v3.042h11.831v-3.043zM11.916 24.311v2.113c-1.521 1.352-2.45 3.211-2.45 5.324 0 2.112.929 4.056 2.45 5.324v.93c-4.817.168-8.704 4.14-8.704 9.041v1.775H1.69V24.311h10.226z" fill="#A6C3EE"/>
                           </svg>