<svg width="12" height="12" viewBox="0 0 12 12" fill="none" xmlns="http://www.w3.org/2000/svg">
<path fill-rule="evenodd" clip-rule="evenodd" d="M5.28903 0.40841C5.40552 0.408228 5.53085 0.408284 5.66609 0.408345L5.88899 0.40841C7.67468 0.40841 7.88633 0.41482 8.59149 0.446866C9.24357 0.476683 9.59748 0.585642 9.83323 0.677183C10.1453 0.798403 10.3678 0.943309 10.6018 1.17739C10.8359 1.41147 10.9808 1.6344 11.1023 1.9465C11.1938 2.18198 11.3029 2.53588 11.3326 3.18796C11.3646 3.89298 11.3716 4.10477 11.3716 5.88962C11.3716 7.67448 11.3646 7.88626 11.3326 8.59129C11.3028 9.24336 11.1938 9.59727 11.1023 9.83274C10.981 10.1448 10.8359 10.3671 10.6018 10.601C10.3677 10.8351 10.1455 10.98 9.83323 11.1012C9.59775 11.1932 9.24357 11.3019 8.59149 11.3317C7.88647 11.3637 7.67468 11.3707 5.88899 11.3707C4.10317 11.3707 3.89152 11.3637 3.1865 11.3317C2.53442 11.3016 2.18051 11.1926 1.94462 11.1011C1.63252 10.9799 1.40959 10.835 1.17551 10.6009C0.941427 10.3668 0.796521 10.1444 0.675023 9.83218C0.583481 9.59671 0.474384 9.24281 0.444706 8.59073C0.412659 7.8857 0.40625 7.67392 0.40625 5.88795C0.40625 4.10198 0.412659 3.89131 0.444706 3.18629C0.474523 2.53421 0.583481 2.18031 0.675023 1.94455C0.796242 1.63245 0.941427 1.40952 1.17551 1.17544C1.40959 0.941358 1.63252 0.796452 1.94462 0.674954C2.18037 0.582994 2.53442 0.474315 3.1865 0.444358C3.80346 0.416492 4.04256 0.408132 5.28903 0.406738V0.40841ZM9.45955 1.51894C9.01648 1.51894 8.657 1.878 8.657 2.32122C8.657 2.7643 9.01648 3.12378 9.45955 3.12378C9.90263 3.12378 10.2621 2.7643 10.2621 2.32122C10.2621 1.87814 9.90263 1.51866 9.45955 1.51866V1.51894ZM2.45483 5.89122C2.45483 3.99453 3.99257 2.45674 5.88925 2.45667C7.78598 2.45667 9.32338 3.99449 9.32338 5.89122C9.32338 7.78796 7.78612 9.32508 5.88939 9.32508C3.99265 9.32508 2.45483 7.78796 2.45483 5.89122Z" fill="white"/>
<path fill-rule="evenodd" clip-rule="evenodd" d="M5.8885 3.66211C7.11965 3.66211 8.11783 4.66015 8.11783 5.89143C8.11783 7.12258 7.11965 8.12076 5.8885 8.12076C4.65722 8.12076 3.65918 7.12258 3.65918 5.89143C3.65918 4.66015 4.65722 3.66211 5.8885 3.66211V3.66211Z" fill="white"/>
</svg>
