<svg viewBox="0 0 180 25" fill="none" xmlns="http://www.w3.org/2000/svg">
  <path d="M68.54 11.793a4.993 4.993 0 00-.298-.192c.223-.19.42-.408.585-.65a3.352 3.352 0 00.58-1.921 3.45 3.45 0 00-1.377-2.935c-.859-.638-2.106-.96-3.712-.96H57.34V19.4h7.337c.614 0 1.227-.063 1.828-.188a5.452 5.452 0 001.762-.691 3.873 3.873 0 001.34-1.39 4.35 4.35 0 00.511-2.187 3.9 3.9 0 00-.408-1.876 3.68 3.68 0 00-1.17-1.276zm-7.95-3.487h3.679a3.115 3.115 0 011.467.307c.274.14.43.439.388.744a.818.818 0 01-.408.748 2.274 2.274 0 01-1.227.364h-3.9V8.306zm5.743 7.53a3.151 3.151 0 01-1.656.384H60.59v-2.575h3.998c.391 0 .781.05 1.16.147.303.065.584.206.818.409.179.18.267.43.241.683a.981.981 0 01-.474.952zM84.2 12.411a4.55 4.55 0 00.23-5.179A4.905 4.905 0 0080.317 5H73v14.267h3.27V14.43h2.862l3.27 4.836 3.981.028-3.728-5.502a5.031 5.031 0 001.546-1.382zm-2.632-1.974a1.725 1.725 0 01-.613.597c-.26.15-.558.227-.859.22H76.25V8.18h3.589c.345-.004.688.068 1.001.213.275.123.513.314.691.556.156.212.238.469.233.732a1.41 1.41 0 01-.196.756zM101.786 7.047a7.62 7.62 0 00-2.489-1.549 8.585 8.585 0 00-3.107-.552 8.683 8.683 0 00-3.143.552 7.51 7.51 0 00-2.482 1.554 7.207 7.207 0 000 10.424 7.507 7.507 0 002.482 1.553 8.68 8.68 0 003.143.552 8.583 8.583 0 003.107-.552 7.607 7.607 0 002.489-1.55 7.064 7.064 0 001.636-2.354 7.422 7.422 0 000-5.723 7.065 7.065 0 00-1.636-2.355zm-1.635 7.31a4.04 4.04 0 01-1.586 1.48 4.974 4.974 0 01-2.375.547 5.057 5.057 0 01-2.416-.548 3.994 3.994 0 01-1.578-1.467 3.932 3.932 0 01-.551-2.105c-.016-.741.178-1.47.56-2.106a3.999 3.999 0 011.578-1.467 5.06 5.06 0 012.415-.548 4.98 4.98 0 012.376.548 4.092 4.092 0 011.59 1.471c.384.633.579 1.362.564 2.101.01.739-.19 1.464-.577 2.094zM105.27 8.306h4.39v11.09h3.25V8.307h4.484V5.13H105.27v3.176zM130.127 10.73h-6.704v-5.6h-3.25v14.267h3.25v-5.49h6.704v5.49h3.25V5.13h-3.25v5.6zM137.53 19.397h10.898V16.22h-7.648v-2.538h6.626V10.51h-6.626V8.306h7.648V5.13H137.53v14.267zM163.373 12.537a4.549 4.549 0 00.229-5.179 4.894 4.894 0 00-1.766-1.635 4.817 4.817 0 00-2.346-.597h-7.317v14.266h3.27v-4.835h2.862l3.27 4.835 3.981.03-3.728-5.503a5.017 5.017 0 001.545-1.382zm-2.632-1.974a1.726 1.726 0 01-.613.597 1.638 1.638 0 01-.859.22h-3.846V8.306h3.593c.345-.004.688.068 1.001.213.275.123.512.314.691.556.156.212.238.469.233.732.006.265-.063.528-.2.756zM179.455 12.95a3.982 3.982 0 00-1.361-1.202 7.853 7.853 0 00-1.783-.711 18.697 18.697 0 00-1.986-.409 9.463 9.463 0 01-2.31-.613.841.841 0 01-.572-.858c0-.225.061-.52.552-.785a3.938 3.938 0 011.88-.409 3.979 3.979 0 011.933.454 4.083 4.083 0 011.378 1.206l.433.605 2.245-2.306-.282-.409a5.486 5.486 0 00-2.302-1.909 8.026 8.026 0 00-3.348-.65 7.93 7.93 0 00-2.861.5 5.11 5.11 0 00-2.142 1.475 3.651 3.651 0 00-.842 2.408 3.602 3.602 0 001.569 3.143 8.952 8.952 0 003.761 1.34 11.56 11.56 0 012.624.63c.532.221.605.511.605.769a.773.773 0 01-.286.625 2.53 2.53 0 01-.993.507 5.126 5.126 0 01-1.402.192 4.45 4.45 0 01-2.265-.531 7.417 7.417 0 01-1.86-1.635l-.486-.572-2.085 2.62.319.388a7.089 7.089 0 002.792 2.118 9.16 9.16 0 003.491.641 8.291 8.291 0 003.168-.56 4.935 4.935 0 002.175-1.635c.526-.74.801-1.63.784-2.538.02-.671-.17-1.331-.543-1.889zM23.865 12.823c-.11-.106-.221-.216-.327-.327-.47.13-.89.399-1.202.773a1.946 1.946 0 00-.082 2.117c.21.336.519.6.883.757.46.194.955.294 1.455.294v-2.898l-.319-.315-.408-.4zM24.036 8.965a1.5 1.5 0 00.262.793c.09.142.188.278.294.409V8.122a.87.87 0 00-.217.143.907.907 0 00-.339.699z" fill="#fff"/>
  <path d="M0 24.527h24.588v-5.805a6.418 6.418 0 01-2.796-.564 4.321 4.321 0 01-1.762-1.492 3.573 3.573 0 01-.605-1.979 3.834 3.834 0 01.732-2.268 5.085 5.085 0 011.95-1.55c-.153-.23-.29-.47-.409-.719a2.453 2.453 0 01-.257-1.08 2.82 2.82 0 01.507-1.569 3.723 3.723 0 011.43-1.226 4.24 4.24 0 011.227-.409V0H0v24.527zM8.503 5.944l3.147 7.435c.172.41.36.871.569 1.341.06.131.114.262.175.409.05-.127.524-1.288.691-1.709l2.919-7.46h3.119l-2.044 4.77-3.467 8.008h-2.575L5.477 5.944h3.026zM27.306 6.05c.358.12.699.284 1.014.49a4.62 4.62 0 011.635 1.762l.09.18-1.676 1.39-.147-.27a3.2 3.2 0 00-.928-1.103v4.439l1.181 1.153c.074-.167.134-.34.18-.515.084-.32.136-.647.156-.977v-.238h2.264v.262a6.226 6.226 0 01-.327 1.811 6.515 6.515 0 01-.666 1.374c.356.408.711.78 1.067 1.177.356.396.723.817.965 1.104l.351.408h-3.033l-.078-.081a20.98 20.98 0 01-.494-.552c-.119-.14-.233-.27-.344-.409a6.186 6.186 0 01-1.226.69v6.382h24.625V0H27.306v6.05zm14.586 8.176a10.829 10.829 0 00-2.453-.585 8.066 8.066 0 01-3.389-1.226 3.164 3.164 0 01-1.381-2.768 3.226 3.226 0 01.74-2.117 4.545 4.545 0 011.904-1.317 7.832 7.832 0 015.572.14 4.905 4.905 0 012.044 1.704l.196.29-1.86 1.942-.302-.409a3.94 3.94 0 00-1.304-1.144 3.802 3.802 0 00-1.84-.434 3.74 3.74 0 00-1.786.38.94.94 0 00.028 1.746 8.76 8.76 0 002.15.576c.609.09 1.212.212 1.807.364a7.192 7.192 0 011.607.626c.477.257.888.62 1.202 1.063.32.484.482 1.055.466 1.635a3.773 3.773 0 01-.691 2.248 4.386 4.386 0 01-1.91 1.455 7.436 7.436 0 01-2.86.499 8.23 8.23 0 01-3.144-.58 6.348 6.348 0 01-2.506-1.897l-.22-.274 1.737-2.183.343.409a7.086 7.086 0 001.737 1.512c.659.353 1.4.526 2.146.499.447.001.892-.06 1.32-.184.36-.088.693-.259.974-.499a.85.85 0 00.302-.674c-.008-.25-.061-.58-.625-.814l-.004.017z" fill="#fff"/>
</svg>