<svg viewBox="0 0 1241 270" fill="none" xmlns="http://www.w3.org/2000/svg">
  <g opacity=".1">
    <path opacity=".1" d="M589.303 8.277l.877 358.393-.877 286.381h506.447l-21.45-13.796-179.017-30.197-21.081 24.536 8.819-21.571-12.262-4.59-13.796 24.537-14.183-2.695 13.035-21.571-26.071-4.848-13.422 22.925-10.728-2.695 16.865-21.03-19.637-4.848-4.899 10.251-122.658-12.675-4.216-11.591 31.048-44.225 93.144 11.32 34.503-11.32 106.18 8.355 101.206-78.729h20.32l-31.05 50.685-44.846 39.906 68.236 10.921 70.14 27.36L1220.1 573.2l2.55 52.581-32.7 27.309 47.48-.026 1.33-644.722-649.457-.065zm129.788 469.188l-44.69 18.605 8.91 23.867-8.91 16.181 8.91 2.025-17.819 25.078-71.302-151.243 4.603-13.912 2.295-38.552 24.73-13.887 40.254-74.822-36.811-51.213 25.877-151.617-.58 65.113 23.66 34.284-15.614 50.041 22.422 58.24-35.651 83.861-20.127 71.044 27.025 15.601 21.274-12.623-2.295 18.258-28.752 22.847 14.943 8.897 65.732-31.744-8.084 25.671z" fill="#fff"/>
    <path d="M813.924 518.493c-.452-2.217-45.27-223.202-61.877-296.077-12.494-54.811-54.153-219.192-54.566-220.843l3.752-.954c.426 1.65 42.085 166.083 54.592 220.933 16.62 72.914 61.451 293.95 61.902 296.168l-3.803.773zM576.474 968.907l-3.507-1.624c.825-1.779 82.687-178.436 124.72-252.213 40.461-71.031 121.175-195.056 162.976-256.507 28.689-42.175 76.833-110.447 119.318-170.673 28.339-40.19 55.109-78.149 74.099-105.47C1085.18 137.588 1177.54 1.367 1178.47 0l3.19 2.166c-.92 1.367-93.29 137.614-124.43 182.446-19 27.347-45.78 65.306-74.116 105.495-42.471 60.214-90.604 128.473-119.279 170.622-41.763 61.4-122.4 185.295-162.808 256.236-41.943 73.649-123.741 250.163-124.553 251.942z" fill="#fff" stroke="#fff" stroke-width="2" stroke-miterlimit="10"/>
    <path d="M974.502 298.36L755.425 72.527 775.707.555l3.726 1.057-19.675 69.82 217.516 224.233-2.772 2.695z" fill="#fff" stroke="#fff" stroke-width="2" stroke-miterlimit="10"/>
    <path d="M856.934 35.506l-129.582 79.468 2.022 3.297 129.583-79.467-2.023-3.298zM1036.17 490.617l-3.6-1.418 62.96-159.817-22.97-99.54-27.05-32.685 2.98-2.463 27.64 33.382.1.451 23.34 101.151-.22.567-63.18 160.372z" fill="#fff"/>
    <path d="M1055.74 208.504l-66.424-100.068-128.111-66.325-.116-.09-47.384-39.945 1.663-1.972 47.268 39.854 128.46 66.492.193.271 66.591 100.352-2.14 1.431zM804.125 119.989l-1.754-1.883 38.926-36.412-23.002-19.753 1.676-1.96 25.181 21.636-41.027 38.372z" fill="#fff"/>
    <path d="M995.484 115.698l-94.762 83.294 1.703 1.937 94.762-83.294-1.703-1.937zM962.451 92.41l-49.043 49.112 2.737 2.734 49.043-49.112-2.737-2.734z" fill="#fff"/>
    <path d="M940.488 165.967l-80.804-69.755 38.474-36.889 1.792 1.87-36.437 34.916 78.651 67.898-1.676 1.96z" fill="#fff"/>
    <path d="M838.425 48.496l-1.446 2.136 42.485 28.76 1.445-2.135-42.484-28.76z" fill="#fff"/>
    <path d="M868.193 43.685l-17.571 14.157 1.618 2.008 17.57-14.157-1.617-2.008zM884.407 52.216l-17.434 16.842 1.792 1.854 17.433-16.842-1.791-1.854zM844.005 80.626l-1.598 2.024 18.378 14.508 1.598-2.024-18.378-14.508zM939.429 118.07l-1.677 1.958 27.841 23.845 1.677-1.958-27.841-23.845zM952.318 105.024l-1.514 2.087 31.108 22.555 1.513-2.088-31.107-22.554zM820.095 135.789l-78.511 35.447 1.062 2.351 78.51-35.448-1.061-2.35z" fill="#fff"/>
    <path d="M839.608 354.227l-63.424-197.363 2.45-.787 62.728 195.184 32.234-6.227.49 2.527-34.478 6.666z" fill="#fff"/>
    <path d="M789.59 193.885l-71.772 14.301.504 2.529 71.772-14.301-.504-2.529zM794.801 210.256l-25.773 6.147.599 2.509 25.773-6.148-.599-2.508zM803.306 236.72l-23.715 5.492.582 2.512 23.715-5.492-.582-2.512zM809.874 257.352l-63.867 17.353.676 2.489 63.867-17.354-.676-2.488zM853.717 170.982l-56.474 49.803 2.559 2.901 56.474-49.803-2.559-2.901zM881.848 213.593l-68.867 55.052 1.61 2.014 68.867-55.052-1.61-2.014zM825.438 304.884l-1.767-3.443 48.945-25.13 38.552-46.03 59.117-56.977 2.682 2.785-59.04 56.912-38.849 46.392-49.64 25.491z" fill="#fff"/>
    <path d="M872.396 279.135l-29.165-33.072-28.946-37.92 3.081-2.347 28.895 37.869 29.036 32.904-2.901 2.566zM753.981 349.071l-8.471-7.505 1.702-1.934 7.543 6.679 24.897-4.409 53.922-10.186 41.633-32.131 60.123-44.612 1.535 2.063-60.098 44.599-42.11 32.505-.297.051-54.244 10.251-26.135 4.629z" fill="#fff"/>
    <path d="M890.298 258.313l-1.764 1.881 18.69 17.524 1.764-1.881-18.69-17.524zM1031.8 171.209l-61.703 79.025 3.049 2.381 61.704-79.026-3.05-2.38zM1013.91 156.902l-62.726 62.842 2.737 2.733 62.729-62.843-2.74-2.732zM919.308 184.365l-2.909 2.549 19.427 22.165 2.909-2.549-19.427-22.165zM935.381 170.171l-1.889 1.756 19.364 20.835 1.889-1.756-19.364-20.835z" fill="#fff"/>
    <path d="M953.492 154.278l-1.91 1.733 31.366 34.567 1.909-1.733-31.365-34.567zM1017.33 238.172l-21.786-16.014-25.942-17.819 1.457-2.127 25.981 17.845 21.83 16.027-1.54 2.088zM1036.03 211.521l-20.81-15.898-21.081-15.937 1.56-2.063 21.081 15.95 20.81 15.897-1.56 2.051zM689.332 270.329l-15.021-24.241v-60.471h2.579v59.737l14.634 23.621-2.192 1.354z" fill="#fff"/>
    <path d="M741.843 219.843l-66.509 13.973.531 2.524 66.508-13.973-.53-2.524zM747.564 241.166l-65.842 13.587.521 2.526 65.843-13.587-.522-2.526zM948.257 268.948l-38.1 60.851 2.186 1.368 38.1-60.85-2.186-1.369zM1033.88 370.036l-90.13-25.878.709-2.475 88.331 25.361 53.19-78.677-79.5-34.271 1.02-2.36 82.36 35.484-55.98 82.816z" fill="#fff"/>
    <path d="M1073.43 228.111l-35.16 37.826 1.89 1.755 35.15-37.826-1.88-1.755z" fill="#fff"/>
    <path d="M1026.28 225.411l-1.45 2.13 31.25 21.325 1.45-2.13-31.25-21.325zM999.709 121.407l-1.728-1.921 89.319-80.057 78.88-19.585.62 2.514-78.25 19.418-88.841 79.631z" fill="#fff"/>
    <path d="M991.082 27.73l-1.932 1.71 49.21 55.609 1.93-1.71-49.208-55.608zM1075.97 65.023l-8.57-5.905-59.07-57.106 1.8-1.857 58.99 57.042 8.31 5.699-1.46 2.127z" fill="#fff"/>
    <path d="M1038.43 29.254l-26.1 24.509 1.76 1.88 26.11-24.51-1.77-1.88zM1044.74 78.514l-.91 2.413 65.55 24.714.91-2.413-65.55-24.714zM1019.7 100.993l-.97 2.39 72.2 29.232.97-2.39-72.2-29.232zM1075.22 51.381l-1.2 2.286 52.05 27.186 1.19-2.285-52.04-27.187z" fill="#fff"/>
    <path d="M1154.39 123.959l-51.24-8.78.44-2.553 48.87 8.381 16.32-67.267-22.84-1.186.12-2.566 25.96 1.341-17.63 72.63z" fill="#fff"/>
    <path d="M1117.19 92.486l-.18 2.573 42.58 2.967.18-2.573-42.58-2.967z" fill="#fff"/>
    <path d="M1147.44 96.508l-4.64 24.12 2.53.487 4.64-24.12-2.53-.487zM1129.37 94.397l-6.19 22.782 2.49.676 6.19-22.782-2.49-.676zM1085.31 270.767l-1.3-2.231 53.88-31.822-55.88-92.473 2.2-1.328 57.24 94.704-56.14 33.15z" fill="#fff"/>
    <path d="M1103.6 177.592l-45.26 31.83 1.48 2.109 45.26-31.829-1.48-2.11z" fill="#fff"/>
    <path d="M1066.73 168.637l-2.32 1.11 13.11 27.503 2.33-1.11-13.12-27.503zM1238 200.999l-21.03-15.176-119.6-17.071.37-2.553 120.22 17.162 21.54 15.549-1.5 2.089z" fill="#fff"/>
    <path d="M1237.89 163.884l-33.76 33.742 1.82 1.824 33.76-33.742-1.82-1.824zM1240.01 202.044l-23.64 8.628.88 2.422 23.64-8.627-.88-2.423zM1166.97 177.198h-2.58v33.292h2.58v-33.292zM1172.25 232.969l-32.68 2.946.24 2.568 32.67-2.945-.23-2.569zM1238.66 228.817l-30.75 1.716.14 2.575 30.75-1.716-.14-2.575z" fill="#fff"/>
    <path d="M1135.65 367.212l-2.27-1.212 11.21-21.12-3.22-62.728 19.91-47.539 2.38 1.006-19.68 46.985 3.23 62.856-11.56 21.752z" fill="#fff"/>
    <path d="M1214.94 264.332l-129.23 13.316.26 2.566 129.23-13.317-.26-2.565z" fill="#fff"/>
    <path d="M1193.65 242.375l-1.84 1.807 46 46.86 1.84-1.806-46-46.861zM1184.79 244.24l-2.57.126 2.12 43.425 2.57-.125-2.12-43.426zM597.351 198.004l-7.706.676.225 2.569 7.707-.677-.226-2.568zM613.466 199.168l-.219-2.565 15.885-1.393.219 2.566-15.885 1.392zm31.77-2.797l-.219-2.566 15.885-1.393.219 2.566-15.885 1.393zm31.783-2.798l-.22-2.566 15.885-1.393.22 2.566-15.885 1.393zm31.77-2.785l-.22-2.566 15.885-1.393.22 2.566-15.885 1.393zm31.783-2.798l-.22-2.566 15.885-1.393.22 2.566-15.885 1.393zm31.782-2.785l-.219-2.566 15.885-1.393.219 2.566-15.885 1.393zm31.474-5.519l-1.767-1.869 11.605-10.947 1.766 1.869-11.604 10.947zm23.196-21.906l-1.767-1.87 11.604-10.946 1.767 1.869-11.604 10.947zm23.208-21.894l-1.766-1.869 11.604-10.947 1.766 1.87-11.604 10.946zm23.196-21.893l-1.767-1.87 11.605-10.946 1.766 1.869-11.604 10.947zM896.624 92.1l-1.767-1.87 11.604-10.947 1.767 1.87L896.624 92.1zM936.284 72.385l-11.539-6.834-4.926 4.655-1.766-1.883 6.331-5.97 11.539 6.821 4.913-4.654 1.766 1.87-6.318 5.995zM952.904 56.642l-1.779-1.87 10.302-9.747 1.779 1.87-10.302 9.747zm20.604-19.508l-1.779-1.87 10.302-9.747 1.779 1.87-10.302 9.747zM997.942 10.425l-5.617 5.32 1.773 1.872 5.617-5.32-1.773-1.872z" fill="#fff"/>
  </g>
  <g opacity=".1">
    <path opacity=".1" d="M651.697 625.646l-.877-358.393.877-286.381h-506.45l21.455 13.796 179.015 30.197L366.798.33l-8.819 21.57 12.262 4.59 13.796-24.536 14.183 2.695-13.035 21.571 26.071 4.848 13.422-22.925 10.728 2.695-16.865 21.03 19.637 4.848 4.899-10.251 122.658 12.675 4.216 11.59-31.048 44.226-93.144-11.32-34.503 11.32-106.18-8.355-101.202 78.729h-20.32l31.048-50.685 44.844-39.906-68.234-10.921-70.141-27.36L20.9 60.722l-2.553-52.58 32.698-27.309-47.474.026-1.328 644.722 649.454.065zM521.909 156.458l44.69-18.606-8.91-23.866 8.91-16.181-8.91-2.025 17.819-25.078 71.302 151.243-4.603 13.912-2.295 38.552-24.73 13.887-40.254 74.822 36.811 51.213-25.877 151.617.58-65.113-23.66-34.284 15.614-50.041-22.422-58.24 35.651-83.861 20.127-71.044-27.025-15.601-21.274 12.623 2.295-18.258 28.753-22.847-14.944-8.897-65.732 31.744 8.084-25.671z" fill="#fff"/>
    <path d="M427.076 115.43c.452 2.217 45.27 223.202 61.877 296.077 12.494 54.811 54.153 219.192 54.566 220.843l-3.752.954c-.426-1.651-42.085-166.084-54.592-220.933-16.62-72.914-61.451-293.95-61.902-296.168l3.803-.773z" fill="#fff" stroke="#fff" stroke-width="2" stroke-miterlimit="10"/>
    <path d="M529.439 99.636l.529.232c.67.296 67.795 29.849 90.578 38.204 26.586 9.747 108.629 34.103 109.454 34.348l-1.096 3.714c-.825-.245-82.984-24.627-109.699-34.426-21.816-8.007-83.899-35.264-90.282-38.062-12.945 2.088-238.004 38.345-314.683 42.046-47.074 2.282-186.506-6.537-194.952-7.066l-16.413 5.673-1.264-3.662 17.149-5.931.386.026c1.457.09 146.821 9.413 194.901 7.092 78.355-3.791 312.465-41.711 314.825-42.098l.567-.09z" fill="#fff" stroke="#fff" stroke-width="2" stroke-miterlimit="10"/>
    <path d="M664.526-334.984l3.507 1.624c-.825 1.779-82.687 178.435-124.72 252.213-40.46 71.031-121.175 195.055-162.976 256.507-28.688 42.175-76.833 110.447-119.318 170.673-28.34 40.19-55.108 78.149-74.1 105.47-31.1 44.832-123.457 181.053-124.385 182.42l-3.198-2.166c.928-1.367 93.299-137.614 124.437-182.446 18.992-27.347 45.772-65.306 74.113-105.496 42.471-60.213 90.604-128.472 119.279-170.622 41.763-61.399 122.4-185.294 162.808-256.235 41.943-73.649 123.741-250.163 124.553-251.942z" fill="#fff" stroke="#fff" stroke-width="2" stroke-miterlimit="10"/>
    <path d="M204.828 143.306l3.597 1.418-62.959 159.817 22.976 99.539 27.051 32.686-2.978 2.463-27.645-33.382-.103-.451-23.337-101.151.219-.568 63.179-160.371zM477.091 237.21l10.805 48.738-2.515.568-10.263-46.25-23.441 4.938-.541-2.527 25.955-5.467z" fill="#fff"/>
    <path d="M481.049 261.231l.645 2.502-24.808 6.382-56.087 12.326-.554-2.514 56.048-12.326 24.756-6.37z" fill="#fff"/>
    <path d="M583.051 125.178l3.713 1.057-14.982 52.89-42.794 9.541-159.611 1.264-.026-3.868 159.392-1.264 39.944-8.935 14.364-50.685z" fill="#fff" stroke="#fff" stroke-width="2" stroke-miterlimit="10"/>
    <path d="M434.468 162.35l51.814-2.891-.144-2.575-51.814 2.891.144 2.575zM559.7 115.21l34.35-48.953-2.111-1.481-34.35 48.953 2.111 1.481z" fill="#fff"/>
    <path d="M574.179 92.865l.956-2.395-36.438-14.549-.956 2.395 36.438 14.549zM207.123 263.887l90.127 25.878-.709 2.475-88.335-25.362-53.186 78.678 79.502 34.271-1.018 2.36-82.365-35.484 55.984-82.816z" fill="#fff"/>
    <path d="M209.201 296.832l17.591-25.522-2.124-1.464-17.59 25.523 2.123 1.463zM269.08 220.552l.528-2.524-85.363-17.878-.529 2.524 85.364 17.878zM163.117 144.015h2.579v16.078l109.66 34.762-.786 2.462-111.453-35.341v-17.961zM207.277 266.653l.803-2.451-43.265-14.177-.803 2.45 43.265 14.178zM144.383-27.754L297.83 134.667l63.218 65.861-1.857 1.78-63.23-65.861L142.513-25.988l1.87-1.766z" fill="#fff"/>
    <path d="M144.251 39.404l34.678-28.617-1.641-1.989-34.678 28.617 1.641 1.99zM198.382 85.451l29.468-22.808-1.579-2.04-29.467 22.809 1.578 2.04z" fill="#fff"/>
    <path d="M165.612 43.913l2.065-1.545-47.274-63.182-2.065 1.544 47.274 63.183zM18.515-147.988L72.32 139.786l-6.511 20.204-2.45-.786 6.305-19.586-53.677-287.129 2.528-.477z" fill="#fff"/>
    <path d="M2.952 9.062l39.19-26.407-1.442-2.138L1.511 6.923l1.441 2.139zM108.693 81.388l2.038-1.58L45.146-4.79l-2.038 1.58 65.585 84.597zM337.207-79.007l.529.323 147.826 89.172-1.328 2.218-147.31-88.876-81.127 28.766-.451-.194-52.439-21.919.993-2.385 51.974 21.726 81.333-28.83zM105.354 266.711l2.269 1.212-11.217 21.12 3.223 62.728-19.908 47.539-2.385-1.006 19.689-46.985-3.237-62.856 11.566-21.752z" fill="#fff"/>
    <path d="M2.785 225.748l86.374 39.429 43.8.877 23.518 4.642-.503 2.527-23.415-4.616-43.98-.864-86.865-39.648 1.07-2.347zM178.92 214.6l.731-2.473-74.302-21.95-.73 2.473 74.301 21.95z" fill="#fff"/>
    <path d="M68.24 256.862l20.604-62.85-2.45-.804-20.605 62.851 2.45.803zM46.443 246.813l16.34-54.787-3.707-1.105-16.34 54.786 3.707 1.106zM21.664 235.6l14.255-51.725-2.486-.685-14.255 51.724 2.486.686z" fill="#fff"/>
    <path d="M1.56 200.179l26.393 7.956 25.258 9.515-.902 2.412-25.181-9.49-26.316-7.917.747-2.476zM93.755 266.902l22.131-72.215-2.466-.756-22.13 72.215 2.465.756zM133.928 267.64l18.19-62.291-2.475-.723-18.19 62.291 2.475.723zM23.023 113.248l.41-2.546-22.023-3.544-.41 2.546 22.023 3.544zM223.808-101.919l13.486 7.581-1.263 2.244-13.487-7.582 1.264-2.243zm26.973 15.176l13.487 7.581-1.264 2.244-13.487-7.582 1.264-2.243zm17.613 23.221l2.862 15.202-2.527.477-2.862-15.202 2.527-.477zm5.738 30.404l2.307 12.236-4.886 1.779-.877-2.424 2.837-1.032-1.896-10.082 2.515-.477zm-86.775 1.353l12.21 5.042-.979 2.385-10.947-4.526-1.883 1.251-1.431-2.14 3.03-2.012zM171.472-21.14l1.431 2.14-12.868 8.6-1.431-2.14 12.868-8.6zm42.395.335l14.299 5.905-.98 2.386-14.299-5.906.98-2.385zm42.252 4.577l.877 2.424-14.544 5.287-.877-2.424 14.544-5.287zM145.749-3.953l1.431 2.14-12.867 8.6-1.432-2.14 12.868-8.6zm-25.723 17.2l1.432 2.14-10.019 6.705.503.864-2.231 1.302-1.727-2.952 12.042-8.059zm-.296 23.067l1.341 2.308-12.172 8.96-1.534-2.075 10.315-7.581-.181-.31 2.231-1.302zm-24.82 18.36l1.534 2.076-12.468 9.168-1.535-2.076 12.469-9.168zM69.986 73.01l1.534 2.076-12.468 9.168-1.534-2.076 12.468-9.168zM47.99 94.567l2.347 1.084-6.46 14.054-2.346-1.083 6.46-14.055zM35.057 122.69l2.347 1.083-6.46 14.054-2.346-1.083 6.46-14.054zm-12.932 28.108l2.346 1.083-6.46 14.054-2.346-1.083 6.46-14.054zM9.192 178.905l2.347 1.083-5.531 12.017-2.347-1.083 5.531-12.017z" fill="#fff"/>
  </g>
</svg>