<svg width="18" height="12" viewBox="0 0 18 12" fill="none" xmlns="http://www.w3.org/2000/svg">
<path d="M0.666016 0.999837C0.666016 0.539604 1.03912 0.166504 1.49935 0.166504H16.4993C16.9596 0.166504 17.3327 0.539604 17.3327 0.999837C17.3327 1.46007 16.9596 1.83317 16.4993 1.83317H1.49935C1.03912 1.83317 0.666016 1.46007 0.666016 0.999837Z" fill="white"/>
<path d="M0.666016 6.02669C0.666016 5.56644 1.03912 5.19336 1.49935 5.19336H16.4993C16.9596 5.19336 17.3327 5.56644 17.3327 6.02669C17.3327 6.48694 16.9596 6.86003 16.4993 6.86003H1.49935C1.03912 6.86003 0.666016 6.48694 0.666016 6.02669Z" fill="white"/>
<path d="M1.49935 10.2202C1.03912 10.2202 0.666016 10.5933 0.666016 11.0535C0.666016 11.5137 1.03912 11.8869 1.49935 11.8869H16.4993C16.9596 11.8869 17.3327 11.5137 17.3327 11.0535C17.3327 10.5933 16.9596 10.2202 16.4993 10.2202H1.49935Z" fill="white"/>
</svg>
