<svg width="18" height="18" viewBox="0 0 18 18" fill="none" xmlns="http://www.w3.org/2000/svg">
<path d="M8.99984 16.8332C4.67348 16.8332 1.1665 13.3262 1.1665 8.99984C1.1665 4.67348 4.67348 1.1665 8.99984 1.1665C13.3262 1.1665 16.8332 4.67348 16.8332 8.99984C16.8332 13.3262 13.3262 16.8332 8.99984 16.8332Z" stroke="#3367B1"/>
<path d="M9.83333 11.5003H8.16666V13.167H9.83333V11.5003Z" fill="#3367B1"/>
<path d="M9.83333 10.667V10.1295C10.3284 9.98189 10.7755 9.70549 11.1288 9.32851C11.482 8.95154 11.7289 8.48752 11.844 7.98388C11.9592 7.48025 11.9386 6.95506 11.7843 6.46201C11.6299 5.96897 11.3474 5.52574 10.9657 5.17765C10.5839 4.82956 10.1166 4.58908 9.61139 4.48081C9.10623 4.37253 8.58138 4.40034 8.09048 4.56139C7.59959 4.72245 7.16027 5.01096 6.81743 5.39745C6.47458 5.78394 6.24052 6.25453 6.13916 6.76113L7.77416 7.08863C7.82056 6.85649 7.93192 6.6423 8.0953 6.47097C8.25867 6.29965 8.46734 6.17825 8.69701 6.12088C8.92669 6.06352 9.16794 6.07255 9.39268 6.14694C9.61742 6.22132 9.81642 6.35799 9.96652 6.54105C10.1166 6.72411 10.2117 6.94604 10.2406 7.181C10.2695 7.41596 10.2311 7.6543 10.1298 7.86828C10.0285 8.08226 9.86861 8.2631 9.6686 8.38973C9.46859 8.51637 9.23673 8.58361 8.99999 8.58363C8.77898 8.58363 8.56702 8.67142 8.41074 8.8277C8.25446 8.98399 8.16666 9.19595 8.16666 9.41696V10.667H9.83333Z" fill="#3367B1"/>
</svg>
