<svg width="47" height="40" viewBox="0 0 47 40" fill="none" xmlns="http://www.w3.org/2000/svg">
<path d="M1.26463 36.6567C5.00333 35.476 9.0372 35.3776 12.7759 36.4599L24.484 39.8051C25.3694 40.0019 26.2549 39.9035 26.9436 39.4115L45.6372 26.5228C46.9162 25.6374 47.4081 23.8664 46.6211 22.489C46.0307 21.5051 45.0469 21.0132 44.063 21.0132C43.4727 21.0132 42.8824 21.21 42.3904 21.5051L37.1759 25.1454C37.1759 25.4406 37.1759 25.7357 37.1759 26.0309C36.8807 28.1954 34.913 29.868 32.6501 29.868H30.3872L26.9436 32.2293C26.2549 32.7212 25.2711 32.918 24.484 32.6228L19.9582 31.3438C18.4824 30.9503 18.384 28.9825 19.8598 28.3922H32.7485C34.3227 28.3922 35.7001 27.2116 35.7985 25.7358C35.9953 23.9648 34.6178 22.489 32.8469 22.489H16.7114C14.5469 22.489 12.4808 22.7842 10.4146 23.4729L0.0839844 26.7196V37.0503L1.26463 36.6567Z" fill="#0AAC86" fill-opacity="0.2"/>
<path d="M23.4986 21.3791C29.2041 21.3791 33.8293 16.7539 33.8293 11.0484C33.8293 5.34296 29.2041 0.717773 23.4986 0.717773C17.7932 0.717773 13.168 5.34296 13.168 11.0484C13.168 16.7539 17.7932 21.3791 23.4986 21.3791Z" fill="#0AAC86"/>
<path d="M22.7671 14.4643L18.6172 10.3143L19.9376 8.99386L22.7671 11.8234L27.0114 7.5791L28.4262 8.89957L22.7671 14.4643Z" fill="white"/>
</svg>
