<svg width="24" height="24" viewBox="0 0 24 24" fill="none" xmlns="http://www.w3.org/2000/svg">
<path d="M12 0C5.40894 0 0 5.40894 0 12C0 18.5911 5.40894 24 12 24C14.0999 24 16.1673 23.4452 17.9778 22.3953L17.272 21.1785C15.6757 22.1041 13.8525 22.5938 12 22.5938C6.1842 22.5938 1.40625 17.8158 1.40625 12C1.40625 6.1842 6.1842 1.40625 12 1.40625C17.8158 1.40625 22.5938 6.1842 22.5938 12C22.5938 13.8704 22.1043 15.6969 21.1875 17.2837V15.5625H19.7812V19.7812H24V18.375H22.1708C23.3518 16.4846 24 14.2396 24 12C24 5.40894 18.5911 0 12 0Z" fill="#A6C3EE"/>
<path d="M11.7812 4C7.51654 4 4 7.51654 4 11.7812C4 16.046 7.51654 19.5625 11.7812 19.5625C16.046 19.5625 19.5625 16.046 19.5625 11.7812C19.5625 7.51654 16.046 4 11.7812 4ZM16.7031 12.4844H11.0781V6.8125H12.4844V11.0781H16.7031V12.4844Z" fill="#A6C3EE"/>
</svg>
