<svg viewBox="0 0 36 42" fill="none" xmlns="http://www.w3.org/2000/svg">
  <path d="M30.515 29.043c-4.279-1.631-6.853-3.31-6.853-3.31l-3.298 10.445-.454 1.422-1.483-4.193c3.396-4.744-.258-4.965-.895-4.965h-.049c-.638 0-4.291.233-.895 4.965L15.104 37.6l-.453-1.422-3.274-10.446s-2.562 1.68-6.853 3.31C-.196 30.76.098 34.646 0 41.916h35.039c-.098-7.27.196-11.156-4.524-12.872z" fill="#A6C3EE"/>
  <path d="M17.488.195c-4.334 0-8.05 2.765-9.641 6.865h19.37c-1.68-4.1-5.395-6.865-9.73-6.865z" fill="#3265B1"/>
  <path d="M6.988 11.54c0 6.287 4.696 11.336 10.544 11.336 5.848 0 10.543-5.05 10.543-11.337 0-.952-.088-1.81-.354-2.762H7.254c-.089.857-.266 1.81-.266 2.762z" fill="#A6C3EE"/>
</svg>