<svg width="16" height="16" viewBox="0 0 16 16" fill="none" xmlns="http://www.w3.org/2000/svg">
<path d="M8.44401 9.50117V10.8945C7.84062 10.6812 7.19486 10.6157 6.56095 10.7037C5.92703 10.7917 5.32348 11.0304 4.80096 11.4C4.27845 11.7695 3.85224 12.259 3.55812 12.8274C3.264 13.3958 3.11055 14.0265 3.11068 14.6665L1.77734 14.6658C1.77714 13.8518 1.96329 13.0484 2.32154 12.3174C2.67979 11.5864 3.20064 10.9471 3.84416 10.4485C4.48767 9.94993 5.23679 9.60526 6.03411 9.44093C6.83143 9.27661 7.65578 9.29699 8.44401 9.5005V9.50117ZM7.11068 8.6665C4.90068 8.6665 3.11068 6.8765 3.11068 4.6665C3.11068 2.4565 4.90068 0.666504 7.11068 0.666504C9.32068 0.666504 11.1107 2.4565 11.1107 4.6665C11.1107 6.8765 9.32068 8.6665 7.11068 8.6665ZM7.11068 7.33317C8.58401 7.33317 9.77734 6.13984 9.77734 4.6665C9.77734 3.19317 8.58401 1.99984 7.11068 1.99984C5.63734 1.99984 4.44401 3.19317 4.44401 4.6665C4.44401 6.13984 5.63734 7.33317 7.11068 7.33317ZM11.5013 11.3332L10.282 10.1145L11.2253 9.17117L14.0533 11.9998L11.2253 14.8285L10.282 13.8852L11.5013 12.6665H9.11068V11.3332H11.5013Z" fill="white"/>
</svg>
