<svg viewBox="0 0 60 44" fill="none" xmlns="http://www.w3.org/2000/svg">
  <path d="M30.515 30.644c-4.279-1.63-6.853-3.31-6.853-3.31l-3.298 10.445-.454 1.422-1.483-4.193c3.396-4.744-.258-4.965-.895-4.965h-.049c-.638 0-4.291.233-.895 4.965l-1.484 4.193-.453-1.422-3.274-10.446s-2.562 1.68-6.853 3.31C-.196 32.36.098 36.247 0 43.518h35.039c-.098-7.27.196-11.157-4.524-12.873z" fill="#A6C3EE"/>
  <path d="M47.936 18.163l-3.114 3.114a7.972 7.972 0 01-2.047 7.687 7.956 7.956 0 01-6.596 2.268c.49.735.87 1.557 1.152 2.488.147.503.27 1.03.368 1.582 2.881-.135 5.725-1.287 7.92-3.494 3.678-3.69 4.45-9.195 2.317-13.645z" fill="#3265B1"/>
  <path d="M50.756 15.343c3.567 6.056 2.746 13.964-2.452 19.162a15.748 15.748 0 01-10.286 4.597c.024.932.036 1.938.049 3.004 0 .441.012.907.012 1.386v.012a20.082 20.082 0 0013.326-5.885c6.915-6.915 7.76-17.617 2.526-25.451l-3.175 3.175zM38.717 19.524a4.145 4.145 0 00-4.5.895 4.114 4.114 0 000 5.835 4.114 4.114 0 005.836 0 4.145 4.145 0 00.895-4.5L52.804 9.9l1.974.257L60 4.934l-3.947-.527L55.525.46l-5.222 5.235.257 1.974-11.843 11.856zM17.488 1.808c-4.334 0-8.05 2.765-9.641 6.866h19.37c-1.68-4.1-5.395-6.866-9.73-6.866z" fill="#3265B1"/>
  <path d="M6.988 13.152c0 6.288 4.696 11.336 10.544 11.336 5.848 0 10.543-5.048 10.543-11.336 0-.952-.088-1.81-.354-2.762H7.254c-.089.857-.266 1.81-.266 2.762z" fill="#A6C3EE"/>
  <path fill-rule="evenodd" clip-rule="evenodd" d="M31.375 17.874a15.564 15.564 0 00.866-5.43 11.995 11.995 0 0110.08.128l-3.114 3.114a7.907 7.907 0 00-7.687 2.048 6.168 6.168 0 01-.145.14zm.308-9.325c4.396-1.615 9.363-1.219 13.47 1.203l3.188-3.187c-5.508-3.672-12.411-4.35-18.435-2.037a14.917 14.917 0 011.777 4.021z" fill="#3265B1"/>
</svg>