<svg width="18" height="18" viewBox="0 0 18 18" fill="none" xmlns="http://www.w3.org/2000/svg">
<path d="M8.99984 17.3332C4.39734 17.3332 0.666504 13.6023 0.666504 8.99984C0.666504 4.39734 4.39734 0.666504 8.99984 0.666504C13.6023 0.666504 17.3332 4.39734 17.3332 8.99984C17.3332 13.6023 13.6023 17.3332 8.99984 17.3332ZM8.99984 15.6665C10.7679 15.6665 12.4636 14.9641 13.7139 13.7139C14.9641 12.4636 15.6665 10.7679 15.6665 8.99984C15.6665 7.23173 14.9641 5.53604 13.7139 4.28579C12.4636 3.03555 10.7679 2.33317 8.99984 2.33317C7.23173 2.33317 5.53604 3.03555 4.28579 4.28579C3.03555 5.53604 2.33317 7.23173 2.33317 8.99984C2.33317 10.7679 3.03555 12.4636 4.28579 13.7139C5.53604 14.9641 7.23173 15.6665 8.99984 15.6665ZM8.1665 11.4998H9.83317V13.1665H8.1665V11.4998ZM9.83317 10.129V10.6665H8.1665V9.4165C8.1665 9.19549 8.2543 8.98353 8.41058 8.82725C8.56686 8.67097 8.77882 8.58317 8.99984 8.58317C9.23657 8.58316 9.46843 8.51592 9.66844 8.38928C9.86845 8.26264 10.0284 8.08181 10.1296 7.86782C10.2309 7.65384 10.2693 7.4155 10.2404 7.18054C10.2115 6.94558 10.1165 6.72366 9.96636 6.5406C9.81626 6.35754 9.61726 6.22086 9.39252 6.14648C9.16778 6.0721 8.92653 6.06306 8.69686 6.12043C8.46718 6.17779 8.25852 6.2992 8.09514 6.47052C7.93177 6.64184 7.8204 6.85603 7.774 7.08817L6.139 6.76067C6.24036 6.25407 6.47443 5.78348 6.81727 5.39699C7.16011 5.01051 7.59944 4.72199 8.09033 4.56094C8.58122 4.39989 9.10608 4.37208 9.61124 4.48035C10.1164 4.58862 10.5838 4.8291 10.9655 5.17719C11.3473 5.52528 11.6298 5.96851 11.7841 6.46156C11.9384 6.95461 11.9591 7.47979 11.8439 7.98343C11.7287 8.48706 11.4819 8.95109 11.1286 9.32806C10.7753 9.70503 10.3283 9.98143 9.83317 10.129Z" fill="#3367B1"/>
</svg>
