<svg width="16" height="14" viewBox="0 0 16 14" fill="none" xmlns="http://www.w3.org/2000/svg">
<path fill-rule="evenodd" clip-rule="evenodd" d="M1.34033 1.55995L2.28033 0.613281L14.1003 12.4466L13.1603 13.3866L10.8737 11.0999C9.98033 11.4466 9.01366 11.6466 8.00033 11.6466C4.66699 11.6466 1.82033 9.57328 0.666992 6.64661C1.18033 5.33328 2.04033 4.19995 3.12699 3.34661L1.34033 1.55995ZM11.3337 6.64662C11.3337 4.80661 9.84033 3.31328 8.00033 3.31328C7.66033 3.31328 7.33366 3.37995 7.02033 3.47328L5.57366 2.02661C6.34033 1.77995 7.15366 1.64661 8.00033 1.64661C11.3337 1.64661 14.1803 3.71995 15.3337 6.63995C14.8737 7.81328 14.1403 8.83995 13.2137 9.65995L11.1737 7.61995C11.267 7.31328 11.3337 6.98662 11.3337 6.64662ZM8.00033 9.97995C6.16033 9.97995 4.66699 8.48661 4.66699 6.64661C4.66699 6.13328 4.78699 5.64661 4.99366 5.21995L6.04033 6.26661C6.02033 6.38661 6.00033 6.51328 6.00033 6.64661C6.00033 7.75328 6.89366 8.64661 8.00033 8.64661C8.13366 8.64661 8.25366 8.62661 8.38033 8.59995L9.42699 9.64661C8.99366 9.85995 8.51366 9.97995 8.00033 9.97995ZM9.98033 6.42661C9.88033 5.49328 9.14699 4.76661 8.22033 4.66661L9.98033 6.42661Z" fill="#686C78"/>
</svg>
